<svg xmlns="http://www.w3.org/2000/svg" width="86" height="86" fill="none" viewBox="0 0 86 86">
    <g clip-path="url(#clip0)">
        <g filter="url(#filter0_d)">
            <path fill="#C68C07" d="M43 81c20.987 0 38-17.013 38-38S63.987 5 43 5 5 22.013 5 43s17.013 38 38 38z"/>
        </g>
        <g fill="#0F0F0F" clip-path="url(#clip1)" opacity=".6">
            <path d="M42.578 38.234c-.181.002-.361-.031-.53-.1-.167-.067-.32-.167-.449-.294-.128-.128-.23-.28-.3-.446-.07-.167-.106-.346-.106-.527V33.07c0-.363.144-.71.4-.967.257-.256.605-.4.967-.4.333 0 .66-.084.95-.246.29-.162.534-.396.708-.679.174-.283.272-.606.286-.938.013-.332-.059-.662-.21-.958-.15-.296-.374-.548-.65-.733-.276-.185-.595-.296-.926-.322-.332-.026-.664.033-.966.172-.302.14-.563.353-.758.622-.103.15-.236.278-.39.376-.153.099-.325.165-.505.196-.18.03-.363.025-.541-.016-.178-.042-.345-.118-.493-.225-.148-.107-.272-.243-.367-.399-.094-.156-.156-.33-.183-.51-.026-.18-.016-.364.03-.54.045-.177.125-.343.236-.488.436-.6 1.009-1.086 1.67-1.42.662-.335 1.393-.507 2.134-.504.742.004 1.471.184 2.13.525.657.342 1.225.834 1.655 1.438.43.604.71 1.3.818 2.034.107.733.04 1.482-.2 2.184-.238.702-.64 1.337-1.172 1.852-.532.516-1.179.898-1.888 1.115v2.628c0 .36-.142.705-.394.96-.253.257-.597.403-.956.407z"/>
            <path d="M56.549 57.091c-.18.001-.358-.034-.525-.102-.166-.069-.317-.17-.444-.296-.127-.128-.228-.279-.296-.445-.069-.166-.104-.344-.103-.524V42.417h-5.107c-.18 0-.359-.036-.525-.105-.166-.07-.317-.17-.444-.298-.127-.128-.228-.28-.296-.446-.069-.166-.104-.345-.103-.525v-2.837H37.09v2.837c0 .364-.145.714-.402.971-.258.258-.607.402-.971.402h-5.108v11.918h18.596c.363 0 .711.144.968.4.256.256.4.604.4.967s-.144.71-.4.967c-.257.257-.605.4-.968.4H29.242c-.18.002-.358-.033-.524-.102-.167-.068-.318-.169-.445-.296-.127-.127-.228-.278-.296-.445-.069-.166-.104-.344-.103-.524V41.043c0-.362.144-.71.4-.967.257-.256.605-.4.968-.4h5.107v-2.81c0-.362.144-.71.4-.966.257-.257.605-.401.968-.401h14.357c.363 0 .71.144.967.4.256.257.4.605.4.968v2.809h5.108c.362 0 .71.144.967.4.256.257.4.605.4.967v14.68c.001.18-.034.359-.102.525-.069.166-.17.317-.297.445-.127.127-.278.227-.444.296-.166.068-.345.103-.524.102z"/>
            <path d="M42.895 52.54c-1.1.001-2.178-.324-3.094-.935-.916-.611-1.63-1.48-2.053-2.497-.422-1.018-.533-2.137-.319-3.217.214-1.08.744-2.073 1.522-2.852.779-.78 1.77-1.31 2.85-1.525 1.08-.216 2.2-.106 3.218.316 1.017.42 1.887 1.134 2.5 2.05.611.915.938 1.992.938 3.093-.002 1.475-.588 2.89-1.63 3.933-1.043 1.043-2.456 1.631-3.931 1.634zm0-8.387c-.56 0-1.11.166-1.576.478-.467.312-.83.755-1.045 1.273-.215.519-.27 1.09-.161 1.64.11.55.38 1.056.776 1.453.397.396.902.667 1.453.776.55.11 1.12.053 1.64-.161.518-.215.96-.579 1.273-1.045.311-.467.478-1.016.478-1.577 0-.752-.3-1.474-.831-2.006-.532-.532-1.254-.831-2.007-.831zM55.544 37.786h-2.287c-.623 0-1.129.505-1.129 1.129v.618c0 .624.506 1.13 1.13 1.13h2.286c.624 0 1.13-.506 1.13-1.13v-.618c0-.624-.506-1.13-1.13-1.13z"/>
        </g>
    </g>
    <defs>
        <clipPath id="clip0">
            <path fill="#fff" d="M0 0H86V86H0z"/>
        </clipPath>
        <clipPath id="clip1">
            <path fill="#fff" d="M0 0H32V32H0z" transform="translate(27 25)"/>
        </clipPath>
        <filter id="filter0_d" width="86" height="86" x="0" y="1" color-interpolation-filters="sRGB" filterUnits="userSpaceOnUse">
            <feFlood flood-opacity="0" result="BackgroundImageFix"/>
            <feColorMatrix in="SourceAlpha" values="0 0 0 0 0 0 0 0 0 0 0 0 0 0 0 0 0 0 127 0"/>
            <feOffset dy="1"/>
            <feGaussianBlur stdDeviation="2.5"/>
            <feColorMatrix values="0 0 0 0 0.666667 0 0 0 0 0.484772 0 0 0 0 0.0694445 0 0 0 1 0"/>
            <feBlend in2="BackgroundImageFix" result="effect1_dropShadow"/>
            <feBlend in="SourceGraphic" in2="effect1_dropShadow" result="shape"/>
        </filter>
    </defs>
</svg>
