<svg xmlns="http://www.w3.org/2000/svg" width="20" height="20" fill="none" viewBox="0 0 20 20">
    <g fill="#AFAFAF" clip-path="url(#clip0)">
        <path d="M5.643 16.995c-.144.028-.302-.08-.333-.229l-.249-1.138-.311-1.414 1.692 1.157 1.692 1.158-1.38.26-1.11.206zM14.23 6.985l.957-1.498c.126-.196.05-.476-.167-.626l-2.595-1.773c-.22-.15-.496-.112-.622.084l-.957 1.498 3.384 2.315z"/>
        <path d="M10.521 5.18l-5.773 9.036 3.384 2.313 5.774-9.037L10.52 5.18z"/>
    </g>
    <defs>
        <clipPath id="clip0">
            <path fill="#fff" d="M0 0H10.5V14H0z" transform="translate(4.75 3)"/>
        </clipPath>
    </defs>
</svg>
