<svg width="24" height="24" viewBox="0 0 24 24" fill="none" xmlns="http://www.w3.org/2000/svg">
<path d="M16.32 11.65C16.2918 10.9821 16.4475 10.3192 16.7702 9.73376C17.0929 9.14831 17.5702 8.66272 18.15 8.32998C17.7963 7.81589 17.3272 7.39169 16.7802 7.0913C16.2333 6.7909 15.6236 6.62265 15 6.59998C14.3688 6.60435 13.7455 6.7406 13.17 6.99998C12.7233 7.19062 12.2618 7.34447 11.79 7.45998C11.354 7.37651 10.935 7.22105 10.55 6.99998C10.0597 6.78613 9.53435 6.6641 9.00001 6.63998C8.29072 6.6514 7.59845 6.85908 7.00001 7.23998C6.36712 7.63105 5.84947 8.18321 5.50001 8.83998C4.99817 9.75842 4.74967 10.7938 4.78001 11.84C4.77102 12.9129 4.93651 13.9802 5.27001 15C5.56587 15.9309 5.98994 16.8161 6.53001 17.63C6.86519 18.1758 7.26472 18.6794 7.72001 19.13C7.90558 19.347 8.13546 19.5217 8.39419 19.6424C8.65292 19.7632 8.9345 19.8271 9.22001 19.83C9.66948 19.7891 10.1072 19.6635 10.51 19.46C10.9814 19.2463 11.4924 19.1338 12.01 19.13C12.5111 19.1373 13.0051 19.2497 13.46 19.46C13.8857 19.6655 14.348 19.7845 14.82 19.81C15.3744 19.7731 15.895 19.5306 16.28 19.13C16.4698 18.9557 16.6439 18.765 16.8 18.56C16.99 18.31 17.2 18.02 17.42 17.68C17.64 17.34 17.74 17.18 17.89 16.9C18.04 16.62 18.18 16.32 18.31 16.01L18.46 15.62L18.6 15.21C18.1751 15.0182 17.7888 14.7505 17.46 14.42C17.0908 14.0607 16.7992 13.6295 16.6031 13.1531C16.407 12.6766 16.3107 12.1651 16.32 11.65Z" fill="white"/>
<path d="M14.17 5.19002C14.7432 4.50528 15.0613 3.64298 15.07 2.75002V2.57002C15.0748 2.51346 15.0748 2.45659 15.07 2.40002C14.6001 2.43731 14.1434 2.57363 13.73 2.80002C13.2805 3.0223 12.8847 3.33963 12.57 3.73002C11.9859 4.37423 11.6585 5.21045 11.65 6.08002V6.25002C11.6454 6.30326 11.6454 6.35679 11.65 6.41002C12.14 6.44469 12.6306 6.35029 13.0728 6.13622C13.5149 5.92216 13.8933 5.59591 14.17 5.19002V5.19002Z" fill="white"/>
</svg>
