<svg xmlns="http://www.w3.org/2000/svg" width="54" height="54" fill="none" viewBox="0 0 54 54">
    <path fill="#000" d="M24.349 22.056c-.355.429-.818.64-1.388.64-.512 0-.941-.179-1.288-.543-.347-.356-.52-.825-.52-1.408 0-.574.173-1.036.512-1.4.338-.364.776-.542 1.296-.542.645 0 1.148.267 1.495.801h1.413v-.955h.867v4.313h-.867v-.906h-1.52zm-1.38-2.46c-.28 0-.512.105-.685.308-.173.202-.264.485-.264.841s.09.631.264.834c.174.202.405.307.686.307.28 0 .512-.105.685-.307.173-.203.264-.486.264-.834 0-.356-.09-.64-.264-.841-.173-.203-.405-.308-.685-.308zm-.437 6.32V23.27h4.22v2.646h-4.22zm3.353-1.845h-2.494v1.036h2.502V24.07h-.008zm-1.173-2.8h1.157v-.89h-1.132c.025.113.033.235.033.364 0 .178-.017.356-.058.526zM27.553 25.05v-.793h2.684v-1.691h.884v1.691h2.693v.793h-6.26zm5.542-2.347c-.479-.153-.941-.396-1.396-.728-.446-.332-.793-.671-1.024-1.036-.231.38-.57.729-1.016 1.06-.446.332-.908.567-1.404.713l-.512-.753c.801-.194 1.42-.518 1.85-.971.43-.453.645-.89.645-1.31v-.551h.883v.55c0 .413.215.85.644 1.303.43.461 1.041.785 1.834.971l-.504.752z"/>
    <path fill="#000" d="M51.398 45.117H2.602c-.214 0-.413-.113-.52-.3-.107-.185-.107-.412 0-.59L26.48 3.291c.107-.178.306-.291.52-.291.215 0 .413.113.52.291l24.398 40.936c.107.186.107.405 0 .59-.108.187-.306.3-.52.3zM3.651 43.936H50.34L27 4.764 3.652 43.936z"/>
    <path fill="#000" d="M40.718 51c-.173 0-.347-.073-.462-.21L10.102 15.494c-.215-.251-.182-.623.074-.834.256-.21.636-.178.851.073L41.181 50.03c.215.251.181.623-.075.834-.115.097-.256.137-.388.137z"/>
    <path fill="#000" d="M13.282 51c-.14 0-.273-.048-.388-.137-.256-.21-.29-.583-.075-.834l30.154-35.296c.215-.25.595-.283.85-.073.257.21.29.583.075.834L13.744 50.79c-.124.137-.289.21-.462.21zM14.884 35.763c-.652-.34-1.165-.834-1.536-1.49-.124.284-.355.608-.677.964-.322.364-.595.607-.826.744l-.636-.696c.479-.226.875-.574 1.197-1.035.322-.462.488-.939.488-1.425v-1.003h.875v.971c0 .477.165.923.487 1.343.33.421.727.704 1.19.842l-.562.785zm-2.354 2.92v-2.45h.884v1.642h3.527v.809h-4.41zm4.212-4.11v2.29h-.867v-5.348h.867v2.241h1.033v.81h-1.033v.007z"/>
    <path fill="#000" d="M17.766 37.915v-.793h2.685v-1.69h.883v1.69h2.693v.793h-6.26zM23.3 35.57c-.48-.154-.942-.397-1.396-.729-.446-.331-.793-.671-1.024-1.035-.231.38-.57.728-1.016 1.06-.446.331-.908.566-1.404.712l-.512-.753c.801-.194 1.42-.518 1.85-.97.43-.454.644-.89.644-1.312v-.55h.884v.55c0 .413.215.85.644 1.303.43.461 1.04.785 1.834.971l-.504.753zM30.75 37.931v-.8h1.577v-1.312h-1v-.793h.959l-.075-1.731h.876l.058 1.731h1.478l.066-1.731h.876l-.1 1.731h.975v.793h-1v1.311h1.578v.801H30.75zm.627-4.968v-.793h5.013v.793h-5.013zm1.825 4.167h1.363v-1.31h-1.363v1.31zM37.167 35.27v-3.456h.867v1.011h.974v-1.011h.86v3.455h-2.701zm1.841-1.635h-.974v.833h.974v-.833zm2.875 5.308v-2.007h-3.601v-.817h4.476v2.832h-.875v-.008zm.008-3.148v-1.578h-.529v1.578h-.859v-4.127h.86v1.74h.528v-1.893h.867v4.28h-.867z"/>
</svg>
