<svg xmlns="http://www.w3.org/2000/svg" width="54" height="54" fill="none" viewBox="0 0 54 54">
    <path fill="#000" d="M51.398 48H2.602c-.214 0-.413-.113-.52-.299-.107-.185-.107-.411 0-.589L26.48 6.29c.107-.177.306-.29.52-.29.215 0 .413.113.52.29l24.398 40.822c.107.186.107.404 0 .59-.108.185-.306.298-.52.298zM3.651 46.822H50.34L27 7.759 3.652 46.822z"/>
    <path fill="#000" d="M22.738 29.498c-.355.427-.817.637-1.387.637-.512 0-.942-.177-1.289-.54-.346-.355-.52-.823-.52-1.404 0-.573.174-1.033.512-1.396.339-.364.777-.541 1.297-.541.644 0 1.148.266 1.495.799h1.412V26.1h.867v4.3h-.867v-.903h-1.52zm-1.387-2.453c-.281 0-.512.105-.686.306-.173.202-.264.485-.264.84s.09.629.264.83c.174.202.405.307.686.307.28 0 .512-.105.685-.306.174-.202.265-.484.265-.831 0-.355-.091-.638-.265-.84-.173-.201-.404-.306-.685-.306zm-.438 6.302v-2.639h4.22v2.639h-4.22zm3.361-1.84h-2.502v1.033h2.503v-1.033zm-1.172-2.792h1.156v-.888h-1.131c.024.113.033.234.033.363 0 .178-.025.355-.058.525zM25.943 32.484v-.791h2.684v-1.687h.884v1.687h2.692v.79h-6.26zm5.533-2.34c-.479-.154-.941-.396-1.395-.726-.446-.331-.793-.67-1.024-1.033-.232.379-.57.726-1.016 1.057-.446.33-.909.564-1.404.71l-.504-.75c.801-.194 1.42-.517 1.85-.969.43-.452.644-.888.644-1.307v-.549h.884v.549c0 .411.215.847.644 1.299.43.46 1.04.783 1.833.968l-.512.75zM34.648 31.854l-.537 1.968h-.752l.38-1.969h.909zM17.13 39.77c-.652-.34-1.164-.832-1.536-1.485-.124.282-.355.605-.677.96-.322.363-.595.605-.826.742l-.636-.694c.48-.225.876-.572 1.198-1.032.322-.46.487-.936.487-1.42V35.84h.875v.968c0 .476.166.92.488 1.34.33.42.727.702 1.19.839l-.563.782zm-2.353 2.904V40.23h.883v1.638h3.527v.806h-4.41zm4.212-4.099v2.284h-.867v-5.326h.867v2.235h1.032v.807H18.99zM20.145 41.916v-.79h2.684v-1.687h.884v1.687h2.692v.79h-6.26zm5.542-2.34c-.48-.153-.942-.395-1.396-.726-.446-.33-.793-.67-1.024-1.033-.231.38-.57.727-1.016 1.057-.446.331-.908.565-1.404.71l-.512-.75c.801-.194 1.42-.517 1.85-.968.43-.452.644-.888.644-1.307v-.55h.884v.55c0 .411.215.847.644 1.299.43.46 1.04.782 1.834.968l-.504.75zM27.446 41.932v-.799h1.577v-1.307h-.999v-.79h.958l-.074-1.728h.875l.058 1.727h1.478l.067-1.727h.875l-.1 1.727h.975v.791h-.999v1.307h1.578v.799h-6.27zm.628-4.963v-.79h5.013v.79h-5.013zm1.825 4.156h1.363v-1.307h-1.363v1.307zM34.433 39.277v-3.445h.867v1.008h.975v-1.008h.859v3.445h-2.7zm1.842-1.638H35.3v.831h.975v-.83zm2.874 5.294V40.93h-3.6v-.814h4.475v2.824h-.875v-.008zm.008-3.131v-1.574h-.528v1.574h-.86v-4.115h.86v1.734h.528v-1.888h.867v4.269h-.867z"/>
</svg>
