<svg xmlns="http://www.w3.org/2000/svg" width="54" height="54" fill="none" viewBox="0 0 54 54">
    <path fill="#0F1012" d="M51.397 45.117H2.602c-.214 0-.413-.113-.52-.3-.107-.185-.107-.412 0-.59L26.479 3.291c.107-.178.306-.291.52-.291.215 0 .413.113.52.291l24.398 40.936c.107.186.107.405 0 .59-.108.187-.306.3-.52.3zM3.65 43.936H50.34L27 4.764 3.651 43.936z"/>
    <path fill="#0F1012" d="M15.28 34.3c-.652-.34-1.164-.834-1.536-1.49-.124.283-.355.607-.677.963-.322.364-.595.607-.826.745l-.636-.696c.48-.227.876-.575 1.198-1.036.322-.47.487-.939.487-1.424v-1.003h.876v.97c0 .478.165.923.487 1.344.33.42.727.704 1.19.841l-.563.785zm-2.353 2.92V34.77h.883v1.642h3.527v.81h-4.41zm4.212-4.118v2.29h-.867v-5.349h.867v2.241h1.032v.81H17.14v.008zM18.303 36.452v-.794h2.684v-1.69h.884v1.69h2.693v.794h-6.26zm5.534-2.347c-.48-.154-.942-.397-1.396-.728-.446-.332-.793-.672-1.024-1.036-.231.38-.57.728-1.016 1.06-.446.332-.908.566-1.404.712l-.512-.753c.801-.194 1.42-.517 1.85-.97.43-.454.644-.89.644-1.311v-.55h.884v.55c0 .412.215.85.644 1.302.43.462 1.04.785 1.834.971l-.504.753zM30.345 36.468v-.802h1.577v-1.31h-.999v-.793h.958l-.074-1.732h.875l.058 1.732h1.47l.066-1.732h.876l-.1 1.732h.975v.793h-1v1.31h1.578v.802h-6.26zm.628-4.977v-.793h5.013v.793h-5.013zm1.816 4.167h1.363v-1.31H32.79v1.31zM36.903 33.805V30.35h.867v1.012h.974V30.35h.86v3.455h-2.701zm1.841-1.642h-.974v.833h.974v-.833zm2.874 5.308v-2.007h-3.6v-.817h4.476v2.832h-.876v-.008zm.009-3.14v-1.578h-.529v1.578h-.859v-4.127h.86v1.74h.528v-1.893h.867v4.28h-.867zM40.718 51c-.173 0-.347-.073-.462-.21L10.102 15.494c-.215-.251-.182-.623.074-.834.256-.21.636-.178.851.073L41.181 50.03c.215.251.181.623-.075.834-.115.097-.256.137-.388.137z"/>
    <path fill="#0F1012" d="M13.282 51c-.14 0-.273-.048-.388-.137-.256-.21-.29-.583-.075-.834l30.154-35.296c.215-.25.595-.283.85-.073.257.21.29.583.075.834L13.744 50.79c-.124.137-.289.21-.462.21z"/>
</svg>
