<svg xmlns="http://www.w3.org/2000/svg" width="54" height="54" fill="none" viewBox="0 0 54 54">
    <path fill="#000" d="M27.004 53c-.27 0-.492-.221-.492-.492v-5.281l-.18-.008c-4.913-.164-9.579-2.092-13.154-5.437l-.131-.123-3.723 3.723c-.09.09-.214.147-.353.147-.14 0-.254-.049-.353-.147-.09-.09-.147-.214-.147-.353 0-.131.049-.254.147-.344l3.723-3.724-.123-.13c-3.345-3.576-5.273-8.25-5.437-13.155l-.008-.18H1.492c-.27 0-.492-.221-.492-.492 0-.27.221-.492.492-.492h5.281l.008-.18c.164-4.913 2.092-9.579 5.437-13.154l.123-.131-3.723-3.723c-.188-.189-.188-.509 0-.697.09-.107.214-.156.345-.156.131 0 .254.049.352.147l3.724 3.723.13-.123c3.576-3.345 8.25-5.28 13.154-5.437l.18-.008V1.492c0-.27.222-.492.493-.492.27 0 .492.221.492.492v5.281l.18.008c4.913.164 9.579 2.092 13.154 5.437l.131.123 3.723-3.723c.09-.09.214-.147.353-.147.14 0 .254.049.353.147.188.197.188.509 0 .697l-3.723 3.724.123.13c3.345 3.576 5.28 8.25 5.437 13.154l.008.18h5.281c.27 0 .492.222.492.493 0 .131-.05.254-.148.353-.09.09-.213.147-.344.147h-5.281l-.008.18c-.164 4.913-2.092 9.579-5.446 13.154l-.123.132 3.723 3.723c.19.188.19.508 0 .697-.09.09-.221.147-.352.147-.131 0-.254-.049-.353-.147l-3.723-3.723-.131.123c-3.576 3.345-8.242 5.28-13.154 5.437l-.18.008v5.281c0 .131-.05.254-.148.353-.074.09-.197.139-.328.139zm0-45.243c-.23 0-.46 0-.689.008-4.633.165-9.053 1.993-12.44 5.142l-.098.09c-.14.123-.271.255-.402.386-.14.14-.27.279-.402.426l-.066.074c-3.149 3.379-4.977 7.799-5.142 12.432-.016.46-.016.919 0 1.37.165 4.633 1.993 9.053 5.142 12.432.172.189.32.344.476.5.131.131.27.263.402.386l.09.09c3.387 3.157 7.799 4.977 12.44 5.141.23.009.46.009.69.009.229 0 .458 0 .688-.009 4.633-.163 9.053-1.992 12.432-5.141.205-.189.353-.328.5-.476.132-.131.263-.27.386-.402l.09-.09c3.149-3.379 4.978-7.799 5.142-12.44.016-.46.016-.919 0-1.37-.164-4.633-1.993-9.053-5.142-12.432-.172-.188-.32-.344-.476-.5-.14-.14-.279-.262-.41-.394l-.082-.074c-3.387-3.157-7.799-4.977-12.44-5.141-.238-.017-.468-.017-.689-.017z"/>
    <path fill="#000" d="M20.14 29.67h-.648c-.09 0-.13-.05-.13-.157v-2.09c-.271.008-.542.008-.804 0-.263 0-.525-.009-.78-.009-.057-.008-.09-.016-.106-.04-.017-.025-.025-.066-.025-.124v-.541c0-.058.008-.09.025-.115.016-.024.049-.033.098-.033.632.017 1.288.017 1.952 0 .672-.008 1.312-.065 1.927-.172.066-.008.115-.008.131 0 .025.017.033.05.041.099l.058.557c.008.066 0 .107-.017.123-.024.017-.057.025-.098.041-.238.041-.484.082-.73.107-.246.024-.508.049-.763.065v2.133c0 .098-.04.155-.13.155zm1.132-3.74h-2.444c-.23 0-.385-.041-.467-.131-.09-.082-.131-.255-.131-.5v-2.084c0-.098.04-.147.139-.147h.672c.099 0 .14.05.14.147v1.698c0 .074.008.115.032.131.017.017.058.025.115.025h1.952c.033 0 .066.008.098.024.025.017.041.05.041.107v.59c0 .074-.016.107-.04.123-.042.009-.066.017-.107.017zm1.648 3.969h-.689c-.049 0-.082-.008-.098-.025-.017-.016-.025-.057-.025-.114v-6.905c0-.058.008-.09.025-.115.016-.017.05-.033.098-.033h.69c.048 0 .081.008.098.033.016.016.024.057.024.115v6.904c0 .058-.008.099-.024.115-.017.017-.05.025-.099.025zM25.946 28.201c-.254 0-.492-.065-.697-.196-.205-.132-.385-.312-.533-.533-.147-.222-.262-.492-.336-.796-.082-.311-.115-.64-.115-.992 0-.37.041-.714.115-1.017.082-.312.189-.574.336-.804.148-.221.32-.401.533-.524.205-.132.443-.19.697-.19.238 0 .451.05.64.157.197.098.36.246.5.426s.254.402.345.656c.09.254.147.541.18.853h.886v-2.386c0-.058.008-.09.024-.115.017-.017.05-.033.099-.033h.68c.05 0 .082.008.099.033.016.016.024.057.024.115v6.904c0 .058-.008.099-.024.115-.017.017-.05.025-.099.025h-.68c-.05 0-.082-.008-.099-.025-.016-.016-.024-.057-.024-.114v-3.666h-.878c-.024.311-.082.598-.172.86-.09.255-.205.477-.353.665-.147.189-.311.336-.508.435-.189.098-.402.147-.64.147zm0-4.166c-.115 0-.213.041-.311.123-.09.082-.173.197-.238.345-.066.148-.123.32-.156.525-.041.197-.057.418-.057.656 0 .23.016.443.057.64.041.196.09.368.156.516.065.148.147.263.238.345.09.082.196.123.311.123.115 0 .222-.041.32-.132.099-.09.18-.196.246-.344.066-.148.123-.32.164-.517.041-.197.058-.41.058-.64 0-.237-.017-.459-.058-.655-.04-.197-.09-.378-.164-.525-.074-.148-.156-.263-.246-.345-.09-.082-.197-.114-.32-.114zM33.745 28.16c-.057.082-.14.074-.246-.016-.082-.066-.18-.156-.287-.279-.107-.123-.205-.254-.32-.402-.115-.147-.213-.311-.312-.475-.098-.164-.188-.337-.262-.5-.156.36-.344.697-.566 1.008-.221.312-.443.574-.664.771-.066.057-.107.082-.14.09-.032.008-.073-.016-.114-.065l-.37-.427c-.032-.04-.057-.082-.057-.115 0-.032.033-.082.09-.147.255-.27.493-.599.706-.96.213-.369.377-.746.5-1.14.098-.32.164-.664.205-1.041.05-.377.066-.78.066-1.222 0-.057.008-.098.024-.123.017-.024.058-.04.115-.04l.648.024c.066.008.098.024.115.049.016.024.016.074.016.131 0 .37-.016.713-.04 1.033-.034.32-.075.624-.14.927.057.205.14.418.246.631.106.214.221.427.344.624.123.197.246.377.377.54.123.165.246.296.353.395.066.057.09.106.09.147 0 .041-.024.09-.065.148l-.312.434zM35.73 29.9h-.69c-.048 0-.081-.008-.098-.025-.016-.016-.024-.057-.024-.114v-3.88h-1.23c-.041 0-.074-.008-.099-.024-.024-.016-.033-.057-.033-.107v-.574c0-.057.009-.09.033-.114.025-.025.058-.033.099-.033h1.23v-2.173c0-.058.008-.09.024-.115.017-.017.05-.033.099-.033h.689c.049 0 .082.008.098.033.016.016.024.057.024.115v6.904c0 .058-.008.099-.024.115-.017.017-.05.025-.099.025z"/>
</svg>
