<svg xmlns="http://www.w3.org/2000/svg" width="54" height="54" fill="none" viewBox="0 0 54 54">
    <path fill="#0F1012" d="M6.545 52C4.042 52 2 49.958 2 47.456V6.544C2 4.042 4.042 2 6.545 2h40.91C49.959 2 52 4.042 52 6.545v40.91C52 49.959 49.958 52 47.456 52H6.544zm43.803-18.368c-2.282 8.028-8.688 14.434-16.716 16.716l.06.44h13.764c1.841 0 3.333-1.5 3.333-3.332V33.692l-.44-.06zm-47.147.06v13.764c0 1.841 1.502 3.333 3.334 3.333h13.763l.06-.44c-8.028-2.283-14.434-8.69-16.716-16.717l-.44.06zm23.794-29.77c-12.723 0-23.073 10.35-23.073 23.073s10.35 23.073 23.073 23.073 23.073-10.35 23.073-23.073S39.718 3.922 26.995 3.922zm6.637-.27c8.028 2.282 14.434 8.688 16.716 16.716l.44-.06V6.545c0-1.842-1.5-3.334-3.332-3.334H33.692l-.06.44zm-27.087-.45c-1.842 0-3.344 1.5-3.344 3.343v13.763l.44.06c2.283-8.028 8.69-14.434 16.717-16.716l-.05-.45H6.545z"/>
</svg>
