<svg xmlns="http://www.w3.org/2000/svg" width="54" height="54" fill="none" viewBox="0 0 54 54">
    <path fill="#000" d="M27.004 53c-.27 0-.492-.221-.492-.492v-5.281l-.18-.008c-4.913-.164-9.579-2.092-13.154-5.437l-.131-.123-3.723 3.723c-.09.09-.214.147-.353.147-.131 0-.254-.049-.353-.147-.09-.09-.147-.214-.147-.353 0-.131.049-.254.147-.344l3.723-3.724-.123-.13c-1.968-2.1-3.436-4.552-4.362-7.275l-.017-.04-.115-.124.058-.057-.033-.107c-.582-1.804-.902-3.674-.968-5.552l-.008-.18H1.492c-.27 0-.492-.221-.492-.492 0-.27.221-.492.492-.492h5.281l.008-.18c.041-1.345.23-2.698.55-4.035l.033-.14c.82-3.354 2.5-6.462 4.863-8.98l.123-.13-3.723-3.723c-.19-.197-.19-.509 0-.697.082-.107.205-.156.336-.156.131 0 .254.049.352.147l3.724 3.723.13-.123c3.576-3.345 8.25-5.28 13.154-5.437l.18-.008V1.492c0-.27.222-.492.493-.492.27 0 .492.221.492.492v5.281l.18.008c4.913.164 9.579 2.092 13.154 5.437l.131.123 3.723-3.723c.09-.09.222-.147.353-.147.131 0 .254.049.353.147.188.197.188.509 0 .697l-3.723 3.724.123.13c3.345 3.576 5.28 8.25 5.437 13.154l.008.18h5.281c.27 0 .492.222.492.493 0 .131-.05.254-.148.353-.09.09-.213.147-.344.147h-5.281l-.008.18c-.164 4.913-2.092 9.579-5.446 13.154l-.123.132 3.723 3.723c.19.188.19.508 0 .697-.09.09-.213.147-.352.147-.14 0-.254-.049-.353-.147l-3.723-3.723-.131.123c-3.576 3.345-8.242 5.28-13.154 5.437l-.18.008v5.281c0 .131-.05.254-.148.353-.074.09-.197.139-.328.139zM8.914 33.59l.04.114c.886 2.395 2.215 4.551 3.953 6.421l.066.066c.131.147.27.287.41.426l.443.418c3.444 3.207 7.856 5.036 12.49 5.2.229.008.459.008.688.008.23 0 .46 0 .689-.009 4.633-.163 9.053-1.992 12.432-5.141.205-.189.353-.328.5-.476.14-.14.27-.287.41-.426l.066-.066c3.149-3.379 4.978-7.799 5.142-12.44.016-.46.016-.919 0-1.37-.164-4.633-1.993-9.053-5.142-12.432-.189-.205-.328-.352-.476-.5-.13-.131-.27-.262-.401-.385l-.09-.09c-1.903-1.772-4.11-3.125-6.553-4.003l-.115-.04L8.914 33.588zm-.648-2.174l.024.098c.058.238.123.484.189.722l.09.303L32.41 8.53l-.312-.083c-.37-.098-.747-.197-1.116-.27l-.098-.025L8.266 31.416zm-.427-2.665l.008.082c.033.344.074.689.124 1.033l.057.37L29.71 7.93l-.369-.05c-.344-.04-.689-.074-1.041-.098l-.09-.008L7.84 28.75zm-.033-3.141c-.016.238-.032.476-.04.705-.009.213-.009.435-.009.648v.46L26.873 7.748l-.558.016c-.328.009-.664.033-.992.066l-.066.008-17.54 18.025.114-.656-.025.402zM23.093 8.15c-.295.058-.582.124-.877.198l-.05.016L8.242 22.7l-.008.049c-.066.295-.123.59-.18.886l-.107.59L23.69 8.028l-.599.123zm-3.74 1.182c-2.025.877-3.87 2.075-5.477 3.575-.205.197-.353.328-.5.476-.14.14-.27.279-.402.426l-.066.074c-1.632 1.747-2.903 3.764-3.788 5.978l.303.197L19.558 9.635l-.205-.303z"/>
    <path fill="#000" d="M23.027 31.818h-.648c-.09 0-.131-.049-.131-.155V29.57c-.27.009-.542.009-.804 0-.262 0-.525-.008-.779-.008-.057-.008-.09-.016-.107-.04-.016-.025-.024-.066-.024-.124v-.541c0-.058.008-.09.024-.115.017-.024.05-.033.099-.033.631.017 1.287.017 1.952 0 .672-.008 1.312-.065 1.927-.172.065-.008.114-.008.13 0 .026.017.034.05.042.099l.057.557c.008.066 0 .107-.016.123-.025.017-.057.025-.098.041-.238.041-.484.082-.73.107-.246.024-.509.049-.763.065v2.133c0 .106-.041.155-.131.155zm1.131-3.74h-2.443c-.23 0-.386-.04-.468-.13-.09-.082-.13-.255-.13-.5v-2.084c0-.098.04-.147.139-.147h.672c.098 0 .14.05.14.148v1.697c0 .074.008.115.032.131.025.017.057.025.115.025h1.952c.032 0 .065.008.098.024.025.017.041.05.041.107v.59c0 .074-.016.107-.04.123-.042.017-.066.017-.107.017zm1.649 3.978h-.69c-.048 0-.081-.008-.098-.024-.016-.017-.024-.058-.024-.115v-6.905c0-.058.008-.09.024-.115.017-.016.05-.033.099-.033h.689c.049 0 .082.008.098.033.017.017.025.058.025.115v6.905c0 .057-.008.098-.025.115-.016.008-.049.024-.098.024zM28.833 30.359c-.254 0-.492-.066-.697-.197-.205-.131-.386-.312-.533-.533-.148-.222-.263-.492-.337-.796-.081-.311-.114-.64-.114-.992 0-.369.04-.713.114-1.017.083-.311.19-.574.337-.804.147-.22.32-.401.533-.524.205-.131.443-.189.697-.189.238 0 .45.05.64.156.196.098.36.246.5.426s.254.402.344.656c.09.255.148.542.18.853h.886v-2.386c0-.058.008-.09.025-.115.016-.016.049-.033.098-.033h.68c.05 0 .083.008.1.033.016.017.024.058.024.115v6.905c0 .057-.008.098-.025.115-.016.016-.049.024-.098.024h-.68c-.05 0-.083-.008-.1-.024-.016-.017-.024-.058-.024-.115V28.25h-.877c-.025.312-.082.599-.172.861-.09.254-.205.476-.353.664-.148.189-.312.337-.509.435-.188.099-.401.148-.64.148zm0-4.166c-.115 0-.213.04-.312.123-.09.082-.172.197-.238.344-.065.148-.123.32-.155.525-.041.197-.058.418-.058.656 0 .23.017.443.058.64.04.196.09.369.155.516.066.148.148.263.238.345.09.082.197.123.312.123.115 0 .221-.041.32-.131.098-.09.18-.197.246-.345.065-.147.123-.32.164-.517.04-.196.057-.41.057-.64 0-.237-.016-.458-.057-.655s-.09-.377-.164-.525c-.074-.148-.156-.262-.246-.344-.09-.082-.197-.115-.32-.115zM36.632 30.318c-.058.082-.14.073-.246-.017-.082-.065-.18-.156-.288-.279-.106-.123-.204-.254-.32-.401-.114-.148-.212-.312-.31-.476-.1-.164-.19-.336-.263-.5-.156.36-.345.697-.566 1.008-.222.312-.443.575-.664.771-.066.058-.107.082-.14.09-.033.009-.074-.016-.115-.065l-.369-.427c-.032-.04-.057-.082-.057-.114 0-.033.033-.082.09-.148.254-.27.492-.599.705-.96.214-.369.378-.746.5-1.14.099-.32.165-.664.206-1.04.049-.378.065-.78.065-1.223 0-.057.008-.098.025-.123.016-.024.057-.04.115-.04l.648.024c.065.008.098.024.114.05.017.024.017.073.017.13 0 .37-.017.714-.041 1.034-.033.32-.074.623-.14.926.058.205.14.419.246.632.107.213.222.426.345.623.123.197.246.377.377.541.123.164.246.295.353.394.065.057.09.106.09.147 0 .041-.025.09-.066.148l-.311.435zm1.984 1.738h-.689c-.049 0-.082-.008-.098-.024-.017-.017-.025-.058-.025-.115v-3.88h-1.23c-.04 0-.074-.007-.098-.024-.025-.016-.033-.057-.033-.106v-.574c0-.058.008-.09.033-.115.024-.025.057-.033.098-.033h1.23v-2.173c0-.058.008-.09.025-.115.016-.016.05-.033.098-.033h.69c.048 0 .081.008.098.033.016.017.024.058.024.115v6.905c0 .057-.008.098-.024.115-.017.008-.05.024-.099.024z"/>
</svg>
