<svg xmlns="http://www.w3.org/2000/svg" width="54" height="54" fill="none" viewBox="0 0 54 54">
    <g fill="#000" clip-path="url(#clip0)">
        <path d="M27.005 0C13.216 0 2 11.226 2 25.018c0 13.8 11.216 25.027 25.005 25.027 13.788 0 25.004-11.227 25.004-25.027C52 11.226 40.784 0 27.005 0zm0 1.184c12.399 0 22.62 9.535 23.719 21.673h-.029c-1.867-.226-3.595.752-5.106 1.607l-1.351.695c-.16.065-.31.122-.46.188-1.09.441-1.549.629-2.77.225-.872-.291-1.67-.817-2.515-1.381-1.464-.977-2.985-1.982-4.974-1.729-1.192.15-2.131.827-3.041 1.475-.498.348-.958.686-1.455.93-1.868.94-4.44.714-7.04-.6-.197-.104-.394-.207-.582-.31-.9-.48-1.83-.969-2.9-1.1-1.868-.226-3.595.752-5.106 1.607l-.179.103c-1.417.798-3.06 1.55-4.514 1.08-.563-.188-1.08-.545-1.624-.93-.366-.263-.742-.526-1.164-.751-.826-.451-1.849-.63-2.694-.376.76-12.486 11.132-22.406 23.785-22.406zm0 47.677c-13.131 0-23.813-10.69-23.813-23.843v-.094c.498-.432 1.446-.329 2.168.056.357.188.685.432 1.042.677.591.422 1.202.855 1.943 1.099 1.896.61 3.83-.254 5.472-1.175l.178-.103c1.427-.808 2.891-1.635 4.384-1.456.854.103 1.642.517 2.478.968.206.103.403.216.61.319 2.947 1.494 5.894 1.71 8.11.601.572-.291 1.098-.667 1.614-1.024.826-.592 1.614-1.146 2.506-1.268 1.558-.197 2.825.639 4.158 1.531.873.583 1.774 1.184 2.797 1.522.61.207 1.108.291 1.54.291.732 0 1.313-.234 2.055-.535.15-.056.3-.122.47-.188l1.285-.658.179-.103c1.426-.808 2.89-1.635 4.383-1.456l.253.028c.01.32.029.639.029.968-.029 13.152-10.71 23.843-23.841 23.843z"/>
        <path d="M22.068 16.825h-7.002c-.075 0-.113-.019-.132-.047-.019-.028-.028-.075-.028-.122v-.592c0-.056.01-.103.028-.132.019-.028.066-.037.132-.037h7.002c.112 0 .169.056.169.169v.592c.009.113-.047.169-.17.169zm-.986-2.283h-4.505c-.235 0-.413-.056-.517-.169-.103-.113-.15-.272-.15-.489v-2.376c0-.235.047-.385.15-.46.094-.076.263-.113.489-.113h4.495c.104 0 .15.056.15.15v.62c0 .056-.009.103-.027.122-.02.019-.066.028-.123.028h-3.857c-.094 0-.141.047-.141.132v1.493c0 .085.047.132.14.132h3.896c.122 0 .188.047.188.14v.612c0 .122-.056.178-.188.178zM27.192 16.083c-.244.047-.516.094-.807.132-.3.037-.6.065-.91.094-.31.028-.63.037-.939.047-.319.009-.61 0-.9-.01-.235-.01-.404-.056-.489-.14-.084-.085-.122-.236-.122-.442v-2.17c0-.179.038-.301.113-.367.075-.075.197-.103.375-.103h1.905c.047 0 .085-.01.094-.019.01-.01.02-.047.02-.094v-.996c0-.047-.01-.084-.02-.094-.009-.01-.047-.018-.093-.018H23.23c-.112 0-.159-.057-.159-.15v-.62c0-.057.01-.104.038-.123.028-.019.065-.028.122-.028h2.872c.122 0 .216.01.29.028.076.019.132.047.17.094.037.047.065.103.075.17.01.074.018.159.018.272v1.888c0 .225-.047.385-.13.46-.095.075-.236.122-.433.122h-1.849c-.075 0-.103.038-.103.104v1.212c0 .075.038.103.122.103.479.01.957 0 1.445-.038.489-.037.948-.094 1.38-.169.056-.01.094-.01.104.01.018.018.028.047.037.094l.094.6c.01.057.01.104-.01.123-.018.01-.056.019-.122.028zm2.666-1.822h-1.014v3.804c0 .066-.009.104-.028.122-.018.02-.056.029-.122.029h-.826c-.056 0-.103-.01-.122-.029-.028-.018-.037-.065-.037-.122V10.55c0-.057.01-.104.037-.122.028-.02.066-.029.122-.029h.826c.057 0 .104.01.122.029.02.018.028.065.028.122v2.78h1.014c.047 0 .085.01.122.02.028.009.047.056.047.13v.62c0 .067-.019.104-.047.123-.037.028-.075.038-.122.038zM32.777 16.3c-.319 0-.6-.067-.854-.198-.253-.132-.47-.31-.648-.554-.178-.235-.319-.517-.422-.837-.094-.328-.15-.685-.15-1.08 0-.404.047-.77.15-1.108.094-.339.235-.62.413-.865.178-.235.394-.422.648-.554.253-.131.544-.197.854-.197.319 0 .61.066.863.197.254.132.48.31.657.554.179.235.32.526.413.855.094.338.15.705.15 1.109s-.046.77-.15 1.099c-.093.329-.234.61-.413.845-.178.235-.394.414-.657.545-.244.122-.535.188-.854.188zm0-4.407c-.14 0-.272.038-.385.122-.112.085-.216.207-.3.357-.084.15-.15.338-.197.545-.047.216-.066.442-.066.695 0 .235.019.46.066.667.047.207.113.386.197.536.084.15.188.272.3.357.113.084.244.131.385.131.15 0 .282-.047.394-.131.113-.085.216-.207.3-.357.085-.15.151-.329.198-.536.047-.206.066-.432.066-.667 0-.253-.02-.479-.066-.695-.047-.216-.113-.394-.197-.545-.085-.15-.188-.272-.3-.357-.113-.084-.245-.122-.395-.122zm3.886 6.323h-.816c-.057 0-.104-.01-.123-.029-.018-.018-.028-.065-.028-.122V10.55c0-.057.01-.104.029-.122.018-.02.065-.029.121-.029h.817c.056 0 .103.01.122.029.019.018.028.065.028.122v7.515c0 .066-.01.104-.028.122-.019.02-.056.029-.122.029zM45.242 52.816H8.298V54h36.944v-1.184z"/>
    </g>
    <defs>
        <clipPath id="clip0">
            <path fill="#fff" d="M0 0H50V54H0z" transform="translate(2)"/>
        </clipPath>
    </defs>
</svg>
