<svg xmlns="http://www.w3.org/2000/svg" width="54" height="54" fill="none" viewBox="0 0 54 54">
    <g fill="#000" clip-path="url(#clip0)">
        <path d="M26.358 1C12.602 1 1.412 12.3 1.412 26.182c0 13.891 11.19 25.192 24.947 25.192 13.756 0 24.946-11.3 24.946-25.192C51.305 12.3 40.115 1 26.358 1zm0 1.191c12.37 0 22.568 9.599 23.664 21.816h-.028c-1.864-.227-3.587.757-5.094 1.617l-1.33.7c-.16.066-.309.123-.459.189-1.086.444-1.545.634-2.762.227-.871-.293-1.667-.823-2.51-1.39-1.46-.984-2.978-1.995-4.963-1.74-1.19.151-2.126.832-3.034 1.485-.496.35-.955.69-1.451.936-1.864.945-4.43.718-7.024-.605-.196-.104-.393-.208-.58-.313-.9-.482-1.826-.973-2.894-1.106-1.863-.227-3.586.757-5.094 1.617l-.178.104c-1.414.804-3.053 1.56-4.504 1.088-.562-.19-1.077-.549-1.62-.937-.365-.264-.74-.53-1.161-.756-.824-.454-1.845-.634-2.688-.378.74-12.568 11.087-22.554 23.71-22.554zm0 47.991c-13.1 0-23.766-10.761-23.766-24v-.095c.496-.434 1.442-.33 2.163.057.356.19.684.435 1.04.681.59.426 1.198.86 1.938 1.106 1.891.615 3.82-.255 5.46-1.182l.177-.104c1.424-.813 2.884-1.645 4.373-1.465.853.104 1.64.52 2.473.974.206.104.402.217.608.321 2.94 1.504 5.881 1.721 8.091.605.571-.293 1.096-.671 1.61-1.03.825-.596 1.611-1.154 2.5-1.277 1.555-.198 2.82.643 4.15 1.541.87.587 1.77 1.192 2.79 1.532.608.208 1.105.294 1.536.294.73 0 1.31-.237 2.05-.54.15-.056.3-.123.469-.189l1.282-.662.178-.104c1.424-.813 2.885-1.645 4.373-1.465l.253.028c.01.322.029.643.029.974-.02 13.239-10.676 24-23.776 24z"/>
        <path d="M1.82 1.77l-.824.853 51.178 50.375.824-.853L1.819 1.77z"/>
        <path d="M52.186 1.344L1 51.712l.824.853L53.009 2.198l-.823-.854zM21.433 17.936h-6.986c-.075 0-.112-.019-.13-.047-.02-.029-.029-.076-.029-.123v-.596c0-.057.01-.104.028-.132.019-.029.066-.038.131-.038h6.986c.112 0 .169.056.169.17v.596c.009.113-.047.17-.17.17zm-.983-2.298h-4.495c-.234 0-.412-.057-.515-.17-.103-.114-.15-.274-.15-.492v-2.392c0-.237.047-.388.15-.464.093-.075.262-.113.487-.113h4.485c.103 0 .15.057.15.151v.624c0 .057-.01.104-.028.123-.019.02-.066.029-.122.029h-3.848c-.094 0-.141.047-.141.132v1.503c0 .086.047.133.14.133h3.887c.121 0 .187.047.187.142v.614c0 .123-.056.18-.187.18zM26.555 17.189c-.243.047-.515.094-.805.132-.3.038-.6.066-.909.095-.309.028-.627.038-.936.047-.318.01-.609 0-.899-.01-.234-.009-.402-.056-.487-.141-.084-.085-.121-.237-.121-.445v-2.184c0-.18.037-.303.112-.369.075-.075.196-.104.374-.104h1.901c.047 0 .085-.01.094-.019.01-.01.019-.047.019-.094v-1.003c0-.047-.01-.085-.019-.094-.01-.01-.047-.02-.094-.02h-2.181c-.113 0-.16-.056-.16-.15v-.625c0-.056.01-.104.038-.123.028-.019.065-.028.122-.028h2.865c.122 0 .215.01.29.028.075.02.131.048.169.095.037.047.065.104.075.17.01.076.018.161.018.274v1.901c0 .227-.046.388-.13.463-.094.076-.235.123-.431.123h-1.845c-.075 0-.103.038-.103.104v1.22c0 .076.037.104.122.104.477.01.955 0 1.442-.038.487-.037.945-.094 1.376-.17.056-.01.094-.01.103.01.019.019.028.047.038.094l.093.606c.01.056.01.104-.01.122-.027.01-.065.02-.12.029zm2.65-1.835h-1.011v3.83c0 .066-.01.104-.028.123-.019.019-.056.028-.122.028h-.824c-.056 0-.103-.01-.122-.028-.028-.019-.037-.066-.037-.123V11.62c0-.057.01-.104.037-.123.028-.019.066-.028.122-.028h.824c.056 0 .103.01.122.028.019.02.028.066.028.123v2.8h1.011c.047 0 .085.009.122.018.028.01.047.057.047.132v.624c0 .067-.019.105-.047.123-.037.029-.075.038-.122.038z"/>
        <path d="M32.118 17.406c-.319 0-.6-.066-.853-.198-.252-.133-.468-.312-.646-.558-.178-.237-.318-.52-.412-.851-.093-.331-.15-.69-.15-1.088 0-.406.047-.775.15-1.116.094-.34.234-.624.412-.87.178-.236.394-.425.646-.557.253-.133.544-.199.853-.199.318 0 .608.066.861.199.253.132.478.312.656.558.178.236.318.529.412.86.093.34.15.71.15 1.116 0 .406-.047.775-.15 1.106-.094.331-.234.615-.412.851-.178.237-.394.416-.656.549-.253.132-.543.198-.861.198zm0-4.435c-.14 0-.272.038-.384.123-.113.085-.216.208-.3.36-.084.15-.15.34-.197.548-.046.208-.065.444-.065.7 0 .236.019.463.065.671.047.208.113.388.197.54.084.15.187.273.3.359.112.085.243.132.384.132.15 0 .28-.047.393-.132.112-.086.215-.208.3-.36.084-.151.15-.33.196-.539.047-.208.066-.435.066-.671 0-.255-.019-.482-.066-.7-.047-.217-.112-.397-.196-.548-.085-.152-.188-.275-.3-.36-.112-.085-.244-.123-.393-.123zm3.877 6.364h-.815c-.056 0-.103-.01-.122-.028-.019-.019-.028-.066-.028-.123V11.62c0-.057.01-.104.028-.123.019-.019.066-.028.122-.028h.815c.056 0 .102.01.121.028.019.02.028.066.028.123v7.565c0 .066-.01.104-.028.123-.019.019-.056.028-.121.028z"/>
    </g>
    <defs>
        <clipPath id="clip0">
            <path fill="#fff" d="M0 0H52V52H0z" transform="translate(1 1)"/>
        </clipPath>
    </defs>
</svg>
