<svg xmlns="http://www.w3.org/2000/svg" width="54" height="54" fill="none" viewBox="0 0 54 54">
    <g clip-path="url(#clip0)">
        <path fill="#000" d="M45.236 41c-.13 0-.252-.038-.342-.114l-8.813-6.848-.13.089c-2.152 1.436-4.54 2.465-7.109 3.068-1.752.407-3.587.616-5.47.616-2.372 0-4.883-.336-7.45-.99l-.107-.026-5.274 4.097c-.09.07-.212.114-.343.114-.13 0-.252-.038-.35-.114-.09-.07-.147-.165-.147-.267 0-.101.049-.197.147-.273l4.932-3.837-.27-.082c-1.393-.42-2.828-.934-4.255-1.531l-.122-.05-.098.075c-2.372 1.862-5.462 2.884-8.706 2.884-.27 0-.546-.006-.88-.025L0 37.754V16.73l.457-.026c.334-.019.61-.025.88-.025 5.315 0 10.117 2.795 11.935 6.949l.122.28.204-.242c.79-.927 2.152-2.312 4.15-3.646l.154-.102-8.054-6.263c-.196-.146-.196-.394 0-.54.09-.076.22-.114.35-.114.13 0 .253.038.343.108l8.136 6.32.13-.076c1.867-1.086 3.889-1.893 6.024-2.388 1.745-.407 3.58-.616 5.454-.616 2.731 0 5.625.438 8.6 1.302l.115.032 5.894-4.58c.09-.064.212-.102.342-.102.13 0 .253.038.351.114.188.153.188.394 0 .54L39.995 18l.252.083c1.207.4 2.43.864 3.636 1.384l.122.051.098-.076c2.348-1.785 5.389-2.77 8.568-2.77.27 0 .546.007.88.026l.457.025v21.026l-.456.025c-.335.02-.612.025-.88.025-5.593 0-10.468-2.985-12.131-7.425l-.114-.305-.22.267c-.628.756-1.704 1.905-3.261 3.08l-.139.102 8.772 6.822c.09.07.146.172.146.273 0 .102-.048.197-.138.267-.098.077-.22.121-.35.121zM16.59 36.185l.293.07c2.234.527 4.419.788 6.49.788 1.776 0 3.513-.197 5.16-.578 2.388-.56 4.638-1.525 6.676-2.872l.155-.101-7.647-5.952-11.127 8.645zM52.67 17.44c-6.465 0-11.723 4.396-11.723 9.801 0 5.406 5.258 9.802 11.723 9.802h.35l.009-.14V17.447l-.359-.007zm-51.693.006v19.597h.35c6.465 0 11.724-4.396 11.724-9.802 0-5.405-5.25-9.8-11.715-9.8l-.359.006zm17.511 3.107c-2.755 1.816-4.304 3.792-4.712 4.357l-.032.045.016.05c.196.737.285 1.487.285 2.23 0 2.522-1.092 4.967-3.081 6.886l-.139.133.196.083c1.483.61 2.975 1.124 4.426 1.537l.114.032 11.463-8.912-8.414-6.53-.122.089zM28.41 27l7.688 5.977.13-.095c2.169-1.632 3.603-3.38 3.922-3.83-.123-.604-.188-1.213-.188-1.804 0-2.586 1.141-5.07 3.212-7.007l.147-.133-.196-.083c-1.255-.533-2.527-1.003-3.766-1.39l-.114-.039L28.41 27zm1.867-9.878c-1.769 0-3.505.197-5.144.579-1.964.457-3.831 1.194-5.568 2.191l-.18.095 8.332 6.473 10.517-8.175-.278-.076c-2.657-.724-5.241-1.087-7.679-1.087z"/>
    </g>
    <defs>
        <clipPath id="clip0">
            <path fill="#fff" d="M0 0H54V28H0z" transform="translate(0 13)"/>
        </clipPath>
    </defs>
</svg>
