<svg xmlns="http://www.w3.org/2000/svg" width="54" height="54" fill="none" viewBox="0 0 54 54">
    <g fill="#000" clip-path="url(#clip0)">
        <path d="M23.372 41c-4.092 0-8.502-1.276-13.108-3.796l-.123-.067-.098.1C7.671 39.665 4.582 41 1.338 41c-.27 0-.546-.008-.88-.033L0 40.925V13.49l.457-.033c.334-.025.61-.033.88-.033 5.315 0 10.117 3.647 11.935 9.068l.122.364.204-.314c1.614-2.47 5.217-6.897 11.233-8.737 1.745-.53 3.588-.804 5.463-.804 4.23 0 8.804 1.368 13.59 4.07l.121.066.098-.1c2.348-2.329 5.389-3.613 8.568-3.613.27 0 .546.008.88.033l.457.033v27.436l-.456.034c-.335.024-.612.033-.88.033-5.593 0-10.468-3.896-12.131-9.69l-.114-.398-.22.348c-1.297 2.04-4.998 6.996-11.365 8.936-1.752.538-3.595.812-5.47.812zm6.913-26.997c-1.777 0-3.513.257-5.16.754-7.01 2.13-10.696 8.215-11.356 9.408l-.033.058.017.067c.195.961.285 1.94.285 2.909 0 3.29-1.092 6.482-3.082 8.985l-.138.174.196.108c4.353 2.337 8.51 3.523 12.358 3.523 1.777 0 3.514-.257 5.169-.755 7.084-2.155 11.184-9.084 11.788-10.178l-.123.87-.056-.365c-.123-.787-.188-1.583-.188-2.354 0-3.373 1.141-6.614 3.212-9.143l.147-.174-.196-.107c-4.533-2.512-8.853-3.78-12.84-3.78zm22.386.414c-6.465 0-11.723 5.736-11.723 12.79 0 7.054 5.258 12.79 11.723 12.79h.35l.009-.182v-25.39l-.359-.008zm-51.693.009v25.571h.35c6.465 0 11.724-5.736 11.724-12.79 0-7.054-5.25-12.79-11.715-12.79l-.359.009z"/>
        <path d="M18.473 26.809c-.245 0-.473-.05-.677-.141-.203-.091-.375-.224-.521-.382-.147-.165-.253-.348-.335-.555-.081-.207-.122-.431-.122-.671 0-.24.04-.465.122-.672.082-.215.196-.398.334-.563.147-.158.319-.29.522-.382.204-.09.432-.14.677-.14.253 0 .48.05.685.14.203.091.375.224.521.382.147.165.261.348.343.563.081.216.122.44.122.672 0 .24-.04.464-.122.671-.082.207-.196.398-.343.555-.146.158-.317.29-.521.382-.204.09-.432.14-.685.14zm3.106 3.473h-.66c-.098 0-.147-.05-.147-.15v-1.575c0-.074-.033-.115-.098-.115h-2.951c-.033 0-.065-.009-.098-.025-.024-.017-.04-.05-.04-.108v-.589c0-.074.016-.116.04-.124.024-.008.057-.017.098-.017h3.514c.097 0 .179.009.236.025.057.017.106.05.139.091.032.042.057.108.073.175.016.074.024.165.024.273v1.981c-.008.108-.049.158-.13.158zm-3.106-6.093c-.114 0-.22.025-.318.067-.098.041-.171.107-.236.182-.066.075-.115.174-.155.274-.041.099-.057.215-.057.331 0 .116.016.224.057.332.04.107.09.19.155.273.065.075.146.141.236.183.09.04.196.066.31.066.114 0 .22-.025.318-.066.098-.042.179-.108.244-.183.066-.075.122-.166.155-.273.033-.108.057-.216.057-.332 0-.116-.016-.224-.057-.331-.04-.108-.09-.2-.155-.274-.065-.075-.146-.141-.244-.182-.098-.042-.196-.067-.31-.067zm4.068 2.23h-.832v.605c0 .058-.008.091-.024.116-.016.017-.05.033-.098.033h-.677c-.09 0-.13-.05-.13-.149v-3.838c0-.058.008-.09.033-.116.016-.016.057-.033.106-.033h.676c.05 0 .082.008.098.033.016.017.024.058.024.116v.862h.832c.04 0 .073.009.098.017.024.008.04.05.04.124v.572c0 .058-.016.1-.04.116-.025.017-.057.025-.098.025h-.831v.663h.831c.04 0 .073.008.098.017.024.008.04.058.04.124v.58c0 .058-.016.091-.04.108-.025.017-.065.025-.106.025zM26.65 25.441h-3.547c-.098 0-.147-.058-.147-.165v-.523c0-.107.05-.157.147-.157h3.546c.098 0 .147.05.147.157v.53c0 .109-.049.158-.146.158zm-1.712 3.374c-.204 0-.4-.042-.58-.116-.179-.075-.342-.182-.472-.315-.139-.141-.245-.299-.326-.49-.082-.19-.122-.405-.122-.646 0-.232.04-.439.122-.63.081-.19.187-.348.326-.48.139-.133.293-.24.48-.315.188-.075.376-.108.588-.108.204 0 .391.033.579.108.187.074.342.174.48.315.14.132.245.298.327.48.081.183.122.398.122.63 0 .232-.04.448-.122.639-.082.19-.188.356-.326.497-.139.14-.302.249-.481.323-.188.066-.384.108-.596.108zm.88-4.576h-1.842c-.041 0-.074-.008-.098-.024-.025-.017-.041-.058-.041-.133v-.53c0-.067.016-.108.04-.133.025-.025.058-.033.099-.033h1.842c.098 0 .138.058.138.166v.513c.009.116-.04.174-.138.174zm-.872 2.346c-.098 0-.18.017-.261.058-.082.042-.147.091-.196.158-.057.066-.098.14-.122.215-.033.083-.04.166-.04.24 0 .075.015.158.04.241.032.083.073.157.122.224.057.066.122.116.196.157.073.042.163.058.26.058.099 0 .188-.016.27-.058.081-.041.146-.09.195-.157.057-.067.098-.141.123-.224.032-.083.04-.157.04-.24 0-.083-.016-.166-.04-.24-.033-.084-.074-.158-.123-.216-.057-.067-.122-.116-.195-.158-.074-.041-.171-.058-.27-.058zm3.913.116h-.832v3.457c0 .058-.008.1-.024.116-.017.016-.05.025-.098.025h-.677c-.049 0-.081-.009-.106-.025-.024-.017-.032-.058-.032-.116v-6.98c0-.058.008-.09.032-.116.017-.016.057-.033.106-.033h.677c.049 0 .081.009.098.034.016.016.024.058.024.116v2.66h.832c.04 0 .073.009.097.017.025.008.041.058.041.124v.572c0 .058-.016.1-.04.116-.025.025-.058.033-.098.033zM29.78 28.583c-.057.041-.098.058-.122.05-.025-.009-.057-.034-.09-.083l-.31-.481c-.032-.058-.057-.1-.057-.133s.025-.066.073-.1c.286-.215.547-.447.767-.704.228-.257.424-.522.587-.804.163-.273.293-.555.391-.845.098-.282.155-.556.18-.813.016-.132-.033-.198-.14-.198h-1.377c-.09 0-.138-.05-.138-.141v-.564c0-.1.049-.15.138-.15h1.932c.212 0 .35.042.416.133.065.092.098.25.098.473 0 .398-.05.804-.155 1.202h.668v-2.122c0-.1.041-.15.139-.15h.62c.081 0 .13.05.13.15v6.606c0 .058-.008.1-.025.116-.016.017-.048.025-.097.025h-.62c-.049 0-.081-.008-.106-.025-.024-.016-.032-.058-.032-.124v-3.63h-.962c-.204.455-.465.878-.783 1.267-.318.398-.693.747-1.125 1.045zm4.981 1.732h-.669c-.048 0-.081-.008-.097-.033-.017-.017-.025-.058-.025-.116v-6.988c0-.058.008-.09.033-.116.024-.024.057-.033.106-.033h.66c.049 0 .082.009.098.034.016.016.024.058.024.116v6.987c0 .058-.008.091-.024.116-.024.017-.057.033-.106.033z"/>
    </g>
    <defs>
        <clipPath id="clip0">
            <path fill="#fff" d="M0 0H54V28H0z" transform="translate(0 13)"/>
        </clipPath>
    </defs>
</svg>
