<svg xmlns="http://www.w3.org/2000/svg" width="54" height="54" fill="none" viewBox="0 0 54 54">
    <g fill="#000" clip-path="url(#clip0)">
        <path d="M27.005 2C13.216 2 2 13.216 2 26.995 2 40.784 13.216 52 27.005 52c13.788 0 25.004-11.216 25.004-25.005C52 13.216 40.784 2 27.005 2zm0 1.183c12.399 0 22.62 9.527 23.719 21.654h-.029c-1.867-.226-3.595.75-5.106 1.605l-1.351.694c-.16.066-.31.122-.46.188-1.09.441-1.549.629-2.77.225-.872-.29-1.67-.816-2.515-1.38-1.464-.976-2.985-1.98-4.974-1.727-1.192.15-2.131.826-3.041 1.474-.498.347-.958.685-1.455.93-1.868.938-4.44.712-7.04-.602-.197-.103-.394-.206-.582-.31-.9-.478-1.83-.966-2.9-1.098-1.868-.225-3.595.751-5.106 1.606l-.179.103c-1.417.798-3.06 1.548-4.514 1.08-.563-.189-1.08-.545-1.624-.93-.366-.263-.742-.526-1.164-.75-.826-.451-1.849-.63-2.694-.376.76-12.475 11.132-22.386 23.785-22.386zm0 47.634c-13.131 0-23.813-10.681-23.813-23.822v-.094c.498-.431 1.446-.328 2.168.057.357.188.685.432 1.042.676.591.422 1.202.854 1.943 1.098 1.896.61 3.83-.254 5.472-1.174l.178-.103c1.427-.807 2.891-1.633 4.384-1.455.854.104 1.642.517 2.478.967.206.103.403.216.61.32 2.947 1.492 5.894 1.708 8.11.6.572-.291 1.098-.666 1.614-1.023.826-.591 1.614-1.145 2.506-1.267 1.558-.197 2.825.638 4.158 1.53.873.582 1.774 1.182 2.797 1.52.61.207 1.108.291 1.54.291.732 0 1.313-.234 2.055-.535.15-.056.3-.122.47-.188l1.285-.657.179-.103c1.426-.807 2.89-1.633 4.383-1.455l.253.029c.01.319.029.638.029.966-.029 13.14-10.71 23.822-23.841 23.822z"/>
        <path d="M22.068 18.81h-7.002c-.075 0-.113-.018-.132-.046-.019-.028-.028-.075-.028-.122v-.591c0-.057.01-.104.028-.132.019-.028.066-.037.132-.037h7.002c.112 0 .169.056.169.169v.59c.009.114-.047.17-.17.17zm-.986-2.28h-4.505c-.235 0-.413-.056-.517-.169-.103-.113-.15-.272-.15-.488v-2.375c0-.234.047-.384.15-.46.094-.075.263-.112.489-.112h4.495c.104 0 .15.056.15.15v.62c0 .056-.009.103-.027.122-.02.018-.066.028-.123.028h-3.857c-.094 0-.141.047-.141.131v1.492c0 .085.047.132.14.132h3.896c.122 0 .188.047.188.14v.61c0 .123-.056.18-.188.18zM27.192 18.07c-.244.046-.516.093-.807.13-.3.038-.6.066-.91.095-.31.028-.63.037-.939.046-.319.01-.61 0-.9-.009-.235-.01-.404-.056-.489-.14-.084-.085-.122-.235-.122-.442v-2.168c0-.178.038-.3.113-.366.075-.075.197-.103.375-.103h1.905c.047 0 .085-.01.094-.02.01-.009.02-.046.02-.093v-.995c0-.047-.01-.084-.02-.094-.009-.01-.047-.019-.093-.019H23.23c-.112 0-.159-.056-.159-.15v-.62c0-.056.01-.102.038-.121.028-.019.065-.028.122-.028h2.872c.122 0 .216.009.29.028.076.019.132.047.17.094.037.046.065.103.075.168.01.076.018.16.018.273v1.886c0 .226-.047.385-.13.46-.095.075-.236.122-.433.122h-1.849c-.075 0-.103.038-.103.104v1.21c0 .075.038.104.122.104.479.009.957 0 1.445-.038.489-.038.948-.094 1.38-.169.056-.01.094-.01.104.01.018.018.028.046.037.093l.094.601c.01.056.01.103-.01.122-.018.01-.056.019-.122.028zm2.666-1.822h-1.014v3.802c0 .065-.009.103-.028.122-.018.018-.056.028-.122.028h-.826c-.056 0-.103-.01-.122-.028-.028-.019-.037-.066-.037-.122v-7.51c0-.055.01-.102.037-.121.028-.019.066-.028.122-.028h.826c.057 0 .104.009.122.028.019.019.028.066.028.122v2.778h1.014c.047 0 .085.01.122.019.028.01.047.056.047.131v.62c0 .066-.019.103-.047.122-.037.028-.075.037-.122.037zM32.777 18.285c-.319 0-.6-.066-.854-.197-.253-.131-.47-.31-.648-.554-.178-.234-.319-.516-.422-.835-.094-.329-.15-.685-.15-1.08 0-.403.047-.77.15-1.107.094-.338.235-.62.413-.864.178-.234.394-.422.648-.553.253-.132.544-.197.854-.197.319 0 .61.065.863.197.254.131.48.31.657.553.179.235.32.526.413.854.094.338.15.704.15 1.108 0 .404-.046.77-.15 1.098-.093.329-.234.61-.413.845-.178.235-.394.413-.657.544-.244.122-.535.188-.854.188zm0-4.402c-.14 0-.272.038-.385.122-.112.084-.216.206-.3.357-.084.15-.15.338-.197.544-.047.216-.066.441-.066.695 0 .234.019.46.066.666.047.207.113.385.197.535.084.15.188.272.3.357.113.084.244.131.385.131.15 0 .282-.047.394-.131.113-.085.216-.207.3-.357.085-.15.151-.328.198-.535.047-.206.066-.432.066-.666 0-.254-.02-.479-.066-.695-.047-.216-.113-.394-.197-.544-.085-.15-.188-.273-.3-.357-.113-.084-.245-.122-.395-.122zm3.886 6.317h-.816c-.057 0-.104-.01-.123-.028-.018-.019-.028-.066-.028-.122v-7.51c0-.055.01-.102.029-.121.018-.019.065-.028.121-.028h.817c.056 0 .103.009.122.028.019.019.028.066.028.122v7.509c0 .065-.01.103-.028.122-.019.018-.056.028-.122.028zM16.342 38.418c-.103.057-.169.094-.206.094-.038 0-.075-.028-.122-.084l-.404-.507c-.056-.075-.085-.131-.066-.169.019-.038.057-.075.122-.122.291-.197.545-.422.76-.676.216-.253.385-.525.526-.807.141-.282.244-.591.31-.901.066-.31.094-.629.094-.948 0-.094.01-.15.037-.169.029-.019.075-.028.15-.019l.78.028c.056.01.103.02.122.038.018.019.028.056.028.122 0 .507-.057.976-.17 1.417.085.179.188.357.31.526.132.169.263.328.413.47.15.14.3.271.46.384.15.113.3.206.432.282.075.046.113.093.113.131 0 .037-.028.094-.066.15l-.31.507c-.047.066-.084.103-.112.103-.028.01-.085-.01-.16-.047-.113-.056-.235-.131-.375-.225-.132-.094-.273-.197-.404-.31-.131-.112-.263-.244-.394-.385-.132-.14-.244-.29-.347-.45-.366.638-.864 1.154-1.52 1.567zm5.407 3.295h-.808c-.112 0-.169-.056-.169-.16v-1.698c0-.085-.037-.122-.122-.122h-3.632c-.047 0-.085-.01-.113-.029-.028-.018-.047-.056-.047-.112v-.639c0-.075.02-.122.047-.131.028-.01.066-.019.113-.019h4.299c.122 0 .216.01.29.028.076.02.132.057.179.104.038.047.066.112.084.187.02.075.029.179.029.291v2.131c.01.122-.047.169-.15.169zm-2.253-5.34c-.103 0-.16-.057-.16-.16v-.61c0-.075.019-.122.047-.132.028-.01.066-.019.113-.019h1.276v-1.38c0-.065.02-.112.047-.13.028-.02.066-.029.122-.029h.826c.075 0 .113.019.122.047.01.028.019.066.019.113v4.139c0 .056-.01.103-.028.122-.019.019-.066.028-.122.028h-.817c-.056 0-.103-.01-.122-.028-.018-.019-.028-.056-.028-.122v-1.85h-1.295v.01zM30.13 38.944h-1.642v2.563c0 .112-.057.16-.16.16h-.816c-.057 0-.104-.01-.122-.038-.02-.028-.029-.066-.029-.122v-2.563h-1.436v2.563c0 .112-.056.16-.16.16h-.816c-.113 0-.16-.057-.16-.16v-2.563h-1.651c-.076 0-.113-.018-.132-.047-.019-.028-.028-.075-.028-.14v-.563c0-.057.01-.104.028-.132.019-.028.066-.047.132-.047h7.002c.112 0 .169.056.169.178v.564c-.01.131-.066.187-.179.187zm-3.5-1.408c-.386 0-.742-.047-1.07-.13-.33-.085-.61-.207-.845-.367-.235-.15-.423-.338-.564-.554-.131-.216-.206-.46-.206-.722 0-.263.066-.507.206-.733.132-.215.32-.403.564-.563.234-.16.525-.272.844-.366.329-.084.685-.131 1.07-.131.376 0 .732.047 1.06.131.33.085.611.207.846.366.234.15.422.338.563.563.131.216.206.46.206.733 0 .272-.065.506-.206.722-.132.216-.32.404-.554.554-.235.16-.516.272-.845.366-.328.094-.685.131-1.07.131zm0-2.628c-.226 0-.432.02-.62.066-.188.047-.348.113-.479.188s-.235.169-.31.281c-.075.104-.112.216-.112.329 0 .113.037.216.112.319.075.103.179.197.31.272.132.075.291.141.479.188.188.047.394.066.62.066.225 0 .431-.02.619-.066.187-.047.347-.103.478-.188.132-.084.235-.169.31-.272.075-.103.113-.206.113-.32 0-.112-.038-.224-.113-.328-.075-.103-.178-.197-.31-.281-.131-.075-.29-.141-.478-.188-.188-.047-.394-.066-.62-.066zM33.96 38.587c-.056 0-.094-.01-.122-.028-.028-.019-.038-.066-.038-.14v-.61c0-.057.02-.095.047-.113.028-.02.066-.029.122-.029h.883v-1.05h-.836c-.197.647-.526 1.247-.976 1.81-.45.564-1.004 1.052-1.661 1.465-.066.047-.113.066-.15.056-.029-.01-.066-.037-.104-.084l-.375-.526c-.047-.056-.066-.103-.066-.14 0-.038.028-.076.085-.113.347-.226.657-.48.929-.76.272-.282.507-.564.713-.864.207-.3.357-.6.47-.91.112-.31.187-.601.215-.873.02-.141-.037-.216-.16-.216h-1.67c-.113 0-.16-.057-.16-.16v-.6c0-.113.057-.16.16-.16h2.347c.253 0 .422.047.506.14.085.094.122.263.122.507 0 .085 0 .17-.009.254-.01.084-.01.16-.028.244h.648v-1.492c0-.057.009-.104.037-.123.028-.018.066-.028.122-.028h.751c.103 0 .15.057.15.15v7.115c0 .066-.01.103-.028.122-.019.019-.066.028-.122.028h-.75c-.057 0-.104-.01-.123-.028-.019 0-.038-.047-.038-.112v-2.732h-.891zm3.454 3.163h-.807c-.057 0-.103-.01-.122-.028-.019-.019-.028-.066-.028-.122v-7.518c0-.056.009-.103.037-.122.028-.019.066-.028.122-.028h.798c.056 0 .103.009.122.028.019.019.028.066.028.122V41.6c0 .056-.01.103-.028.122-.019.019-.066.028-.122.028z"/>
    </g>
    <defs>
        <clipPath id="clip0">
            <path fill="#fff" d="M0 0H50V50H0z" transform="translate(2 2)"/>
        </clipPath>
    </defs>
</svg>
