<svg xmlns="http://www.w3.org/2000/svg" width="54" height="54" fill="none" viewBox="0 0 54 54">
    <path fill="#000" d="M27.004 53c-.27 0-.492-.221-.492-.492v-5.281l-.18-.008c-4.913-.164-9.579-2.092-13.154-5.437l-.131-.123-3.723 3.723c-.09.09-.214.147-.353.147-.14 0-.254-.049-.353-.147-.09-.09-.147-.214-.147-.353 0-.131.049-.254.147-.344l3.723-3.724-.123-.13c-3.345-3.576-5.273-8.25-5.437-13.155l-.008-.18H1.492c-.27 0-.492-.221-.492-.492 0-.27.221-.492.492-.492h5.281l.008-.18c.164-4.913 2.092-9.579 5.437-13.154l.123-.131-3.723-3.723c-.188-.189-.188-.509 0-.697.09-.107.214-.156.345-.156.131 0 .254.049.352.147l3.724 3.723.13-.123c3.576-3.345 8.25-5.28 13.154-5.437l.18-.008V1.492c0-.27.222-.492.493-.492.27 0 .492.221.492.492v5.281l.18.008c4.913.164 9.579 2.092 13.154 5.437l.131.123 3.723-3.723c.09-.09.214-.147.353-.147.14 0 .254.049.353.147.188.197.188.509 0 .697l-3.723 3.724.123.13c3.345 3.576 5.28 8.25 5.437 13.154l.008.18h5.281c.27 0 .492.222.492.493 0 .131-.05.254-.148.353-.09.09-.213.147-.344.147h-5.281l-.008.18c-.164 4.913-2.092 9.579-5.446 13.154l-.123.132 3.723 3.723c.19.188.19.508 0 .697-.09.09-.221.147-.352.147-.131 0-.254-.049-.353-.147l-3.723-3.723-.131.123c-3.576 3.345-8.242 5.28-13.154 5.437l-.18.008v5.281c0 .131-.05.254-.148.353-.074.09-.197.139-.328.139zm0-45.243c-.23 0-.46 0-.689.008-4.633.165-9.053 1.993-12.44 5.142l-.098.09c-.14.123-.271.255-.402.386-.14.14-.27.279-.402.426l-.066.074c-3.149 3.379-4.977 7.799-5.142 12.432-.016.46-.016.919 0 1.37.165 4.633 1.993 9.053 5.142 12.432.172.189.32.344.476.5.131.131.27.263.402.386l.09.09c3.387 3.157 7.799 4.977 12.44 5.141.23.009.46.009.69.009.229 0 .458 0 .688-.009 4.633-.163 9.053-1.992 12.432-5.141.205-.189.353-.328.5-.476.132-.131.263-.27.386-.402l.09-.09c3.149-3.379 4.978-7.799 5.142-12.44.016-.46.016-.919 0-1.37-.164-4.633-1.993-9.053-5.142-12.432-.172-.188-.32-.344-.476-.5-.14-.14-.279-.262-.41-.394l-.082-.074c-3.387-3.157-7.799-4.977-12.44-5.141-.238-.017-.468-.017-.689-.017z"/>
    <path fill="#000" d="M23.51 26.824h-5.797c-.066 0-.099-.008-.115-.033-.016-.024-.025-.065-.025-.123v-.54c0-.058.009-.091.025-.116.016-.024.057-.032.107-.032h2.427v-.484c-.263-.033-.5-.082-.705-.156-.213-.074-.394-.172-.541-.287-.148-.115-.271-.254-.345-.402-.082-.148-.123-.312-.123-.492 0-.213.05-.402.156-.566.106-.164.254-.311.45-.434.198-.123.427-.214.69-.28.27-.065.566-.098.885-.098.328 0 .624.033.886.099.27.065.5.155.689.279.189.123.336.262.443.434.106.164.155.353.155.566 0 .18-.04.344-.122.5-.082.156-.197.287-.345.402-.148.115-.328.213-.533.287-.213.074-.443.131-.697.156v.484h2.427c.041 0 .074.008.099.032.024.017.04.058.04.123v.542c.009.09-.04.14-.13.14zm-5.043 3.15c-.065.016-.106.024-.123.016-.024-.009-.04-.033-.049-.074l-.23-.615c-.032-.082 0-.14.099-.164.598-.189 1.066-.427 1.41-.738.336-.304.533-.69.574-1.157 0-.024.017-.049.041-.073.025-.025.058-.041.099-.041l.68.008c.074 0 .107.065.099.188-.008.041-.017.09-.017.132-.008.04-.008.09-.016.13.074.206.18.386.336.542.148.156.32.295.509.418.188.123.385.222.598.304.213.082.41.14.599.188.066.017.098.033.107.066.008.024 0 .066-.017.115l-.221.623c-.025.074-.099.098-.205.066-.189-.041-.377-.107-.574-.18-.197-.075-.394-.173-.582-.288-.19-.115-.361-.238-.525-.385-.164-.148-.304-.312-.419-.484-.221.328-.524.615-.885.845-.361.23-.804.418-1.288.557zm2.149-6.38c-.394 0-.697.056-.902.163-.213.107-.32.238-.32.394 0 .14.107.27.32.385.213.115.516.172.902.172.385 0 .68-.057.894-.172.213-.115.32-.238.32-.385 0-.156-.107-.287-.32-.394-.222-.107-.517-.164-.894-.164zM24.7 26.668c-.074.032-.123.04-.148.04-.016-.008-.04-.032-.066-.09l-.246-.55c-.024-.056-.032-.09-.024-.114.008-.024.04-.05.107-.082.573-.27 1.033-.558 1.377-.87.345-.31.59-.663.73-1.082.025-.057.025-.098.016-.123-.008-.024-.057-.032-.123-.032h-1.722c-.057 0-.098-.017-.106-.041-.017-.033-.025-.066-.025-.115v-.533c0-.058.008-.09.025-.115.016-.025.057-.033.106-.033h2.321c.205 0 .345.033.418.107.074.073.115.205.115.393 0 .287-.065.582-.188.894-.123.312-.304.615-.542.902-.238.287-.525.566-.869.812-.345.246-.722.46-1.156.631zm4.731 3.272H25.8c-.099 0-.18-.009-.238-.025-.058-.016-.107-.041-.14-.082-.032-.033-.057-.09-.065-.148-.009-.057-.017-.14-.017-.23v-.983c0-.099.009-.173.017-.23.008-.057.032-.107.065-.148.033-.032.082-.065.14-.082.057-.016.14-.024.238-.024h2.616c.04 0 .065-.025.065-.082v-.18c0-.058-.024-.09-.074-.09h-2.944c-.049 0-.082-.009-.106-.034-.017-.016-.033-.057-.033-.123v-.516c0-.099.05-.14.14-.14h3.452c.106 0 .188.008.246.025.057.016.115.04.147.082.033.041.058.09.074.148.017.057.017.13.017.221v.976c0 .098-.009.18-.017.246-.008.066-.033.115-.065.148-.033.032-.082.057-.14.073-.057.008-.14.017-.246.017h-2.583c-.05 0-.074.024-.074.073v.214c0 .057.025.082.082.082h3.084c.049 0 .082.008.106.024.025.017.033.058.033.123v.517c-.025.098-.066.148-.148.148zm-1.96-4.732c-.081 0-.13-.05-.13-.148v-.541c0-.066.016-.115.04-.123.025-.016.058-.016.09-.016h.993v-1.517c0-.066.016-.107.04-.124.025-.016.058-.024.1-.024h.672c.057 0 .09.016.106.04.008.025.017.067.017.1v3.46c0 .098-.041.14-.132.14h-.672c-.082 0-.131-.042-.131-.132v-1.115h-.992zM32.392 28.136c-.263 0-.5-.058-.705-.18-.214-.124-.394-.288-.542-.509-.147-.213-.262-.476-.344-.78-.082-.303-.123-.63-.123-.991 0-.37.041-.706.123-1.017.082-.312.197-.574.344-.787.148-.222.328-.394.542-.517.213-.123.45-.18.705-.18.262 0 .508.057.722.18.213.123.393.287.54.508.148.213.263.476.345.788.082.311.123.647.123 1.016 0 .37-.04.706-.123 1.01-.082.303-.197.557-.344.778-.148.213-.328.386-.541.5-.214.123-.46.18-.722.18zm0-4.043c-.115 0-.222.04-.32.115-.098.074-.18.188-.246.328-.074.14-.123.311-.164.5-.041.189-.057.41-.057.64 0 .221.016.426.057.615.041.188.09.352.164.492.066.14.156.246.246.328.09.082.205.123.32.123.123 0 .23-.041.328-.123.098-.082.18-.189.246-.328.074-.14.123-.304.164-.492.041-.189.057-.394.057-.615 0-.23-.016-.443-.057-.64s-.09-.36-.164-.5c-.066-.14-.156-.246-.246-.328-.09-.082-.205-.115-.328-.115zm3.223 5.806h-.673c-.049 0-.082-.008-.098-.025-.017-.016-.025-.057-.025-.114v-6.905c0-.058.008-.09.025-.115.016-.017.05-.033.098-.033h.673c.049 0 .082.008.098.033.017.016.025.057.025.115v6.904c0 .058-.008.099-.025.115-.016.017-.05.025-.098.025z"/>
</svg>
