<svg xmlns="http://www.w3.org/2000/svg" width="54" height="54" fill="none" viewBox="0 0 54 54">
    <path fill="#000" d="M27.004 53c-.27 0-.492-.221-.492-.492v-5.281l-.18-.008c-4.913-.164-9.579-2.092-13.154-5.437l-.131-.123-3.723 3.723c-.09.09-.214.147-.353.147-.131 0-.254-.049-.353-.147-.09-.09-.147-.214-.147-.353 0-.131.049-.254.147-.344l3.723-3.724-.123-.13c-1.968-2.1-3.436-4.552-4.362-7.275l-.017-.04-.115-.124.058-.057-.033-.107c-.582-1.804-.902-3.674-.968-5.552l-.008-.18H1.492c-.27 0-.492-.221-.492-.492 0-.27.221-.492.492-.492h5.281l.008-.18c.041-1.345.23-2.698.55-4.035l.033-.14c.82-3.354 2.5-6.462 4.863-8.98l.123-.13-3.723-3.723c-.19-.197-.19-.509 0-.697.082-.107.205-.156.336-.156.131 0 .254.049.352.147l3.724 3.723.13-.123c3.576-3.345 8.25-5.28 13.154-5.437l.18-.008V1.492c0-.27.222-.492.493-.492.27 0 .492.221.492.492v5.281l.18.008c4.913.164 9.579 2.092 13.154 5.437l.131.123 3.723-3.723c.09-.09.222-.147.353-.147.131 0 .254.049.353.147.188.197.188.509 0 .697l-3.723 3.724.123.13c3.345 3.576 5.28 8.25 5.437 13.154l.008.18h5.281c.27 0 .492.222.492.493 0 .131-.05.254-.148.353-.09.09-.213.147-.344.147h-5.281l-.008.18c-.164 4.913-2.092 9.579-5.446 13.154l-.123.132 3.723 3.723c.19.188.19.508 0 .697-.09.09-.213.147-.352.147-.14 0-.254-.049-.353-.147l-3.723-3.723-.131.123c-3.576 3.345-8.242 5.28-13.154 5.437l-.18.008v5.281c0 .131-.05.254-.148.353-.074.09-.197.139-.328.139zM8.914 33.59l.04.114c.886 2.395 2.215 4.551 3.953 6.421l.066.066c.131.147.27.287.41.426l.443.418c3.444 3.207 7.856 5.036 12.49 5.2.229.008.459.008.688.008.23 0 .46 0 .689-.009 4.633-.163 9.053-1.992 12.432-5.141.205-.189.353-.328.5-.476.14-.14.27-.287.41-.426l.066-.066c3.149-3.379 4.978-7.799 5.142-12.44.016-.46.016-.919 0-1.37-.164-4.633-1.993-9.053-5.142-12.432-.189-.205-.328-.352-.476-.5-.13-.131-.27-.262-.401-.385l-.09-.09c-1.903-1.772-4.11-3.125-6.553-4.003l-.115-.04L8.914 33.588zm-.648-2.174l.024.098c.058.238.123.484.189.722l.09.303L32.41 8.53l-.312-.083c-.37-.098-.747-.197-1.116-.27l-.098-.025L8.266 31.416zm-.427-2.665l.008.082c.033.344.074.689.124 1.033l.057.37L29.71 7.93l-.369-.05c-.344-.04-.689-.074-1.041-.098l-.09-.008L7.84 28.75zm-.033-3.141c-.016.238-.032.476-.04.705-.009.213-.009.435-.009.648v.46L26.873 7.748l-.558.016c-.328.009-.664.033-.992.066l-.066.008-17.54 18.025.114-.656-.025.402zM23.093 8.15c-.295.058-.582.124-.877.198l-.05.016L8.242 22.7l-.008.049c-.066.295-.123.59-.18.886l-.107.59L23.69 8.028l-.599.123zm-3.74 1.182c-2.025.877-3.87 2.075-5.477 3.575-.205.197-.353.328-.5.476-.14.14-.27.279-.402.426l-.066.074c-1.632 1.747-2.903 3.764-3.788 5.978l.303.197L19.558 9.635l-.205-.303z"/>
    <path fill="#000" d="M26.397 28.981H20.6c-.066 0-.099-.008-.115-.032-.017-.025-.025-.066-.025-.123v-.542c0-.057.008-.09.025-.114.016-.025.057-.033.106-.033h2.428v-.484c-.263-.033-.5-.082-.706-.156-.213-.074-.393-.172-.54-.287-.148-.115-.271-.254-.345-.402-.082-.147-.123-.311-.123-.492 0-.213.049-.402.156-.566.106-.164.254-.311.45-.434.197-.123.427-.213.69-.28.27-.065.565-.098.885-.098.328 0 .623.033.886.099.27.066.5.156.689.279.188.123.336.262.442.434.107.164.156.353.156.566 0 .18-.04.345-.123.5-.082.156-.197.287-.344.402-.148.115-.328.213-.533.287-.213.074-.443.132-.697.156v.484h2.427c.041 0 .074.008.099.033.024.016.04.057.04.123v.541c.009.082-.04.14-.13.14zm-5.043 3.15c-.066.016-.107.024-.123.016-.025-.008-.041-.033-.05-.074l-.229-.615c-.033-.082 0-.14.098-.164.6-.189 1.067-.427 1.411-.738.336-.303.533-.689.574-1.156 0-.025.017-.05.041-.074.025-.025.058-.041.098-.041l.681.008c.074 0 .107.066.098.189-.008.04-.016.09-.016.13-.008.042-.008.091-.016.132.073.205.18.386.336.541.148.156.32.296.508.418.189.123.386.222.599.304.213.082.41.14.599.188.065.017.098.033.106.066.009.025 0 .066-.016.115l-.222.623c-.024.074-.098.099-.204.066-.19-.041-.378-.107-.575-.18-.196-.074-.393-.173-.582-.288-.188-.114-.36-.238-.525-.385-.164-.148-.303-.312-.418-.484-.221.328-.525.615-.886.845-.36.23-.803.418-1.287.557zm2.14-6.38c-.393 0-.697.057-.902.163-.213.107-.32.238-.32.394 0 .14.107.27.32.385.213.115.517.173.902.173.386 0 .681-.058.894-.173.213-.114.32-.237.32-.385 0-.156-.107-.287-.32-.394-.213-.106-.508-.164-.894-.164zM27.586 28.825c-.073.033-.123.041-.147.041-.017-.008-.041-.033-.066-.09l-.246-.55c-.024-.057-.033-.09-.024-.114.008-.025.04-.05.106-.082.574-.27 1.033-.558 1.378-.87.344-.311.59-.664.73-1.082.024-.058.024-.098.016-.123-.008-.025-.057-.033-.123-.033h-1.722c-.057 0-.098-.016-.107-.04-.016-.034-.024-.067-.024-.116v-.533c0-.057.008-.09.024-.114.017-.025.058-.033.107-.033h2.32c.206 0 .345.033.419.106.074.074.115.205.115.394 0 .287-.066.582-.189.894-.123.311-.303.615-.541.902-.238.287-.525.566-.87.812-.327.246-.721.459-1.156.631zm4.724 3.264h-3.633c-.098 0-.18-.008-.238-.025-.057-.016-.106-.04-.14-.082-.032-.032-.057-.09-.065-.147-.008-.058-.016-.14-.016-.23v-.984c0-.098.008-.172.016-.23.008-.057.033-.106.066-.147.033-.033.082-.066.14-.082.057-.017.139-.025.237-.025h2.616c.041 0 .066-.024.066-.082v-.18c0-.058-.025-.09-.074-.09H28.34c-.05 0-.082-.009-.107-.033-.016-.017-.033-.058-.033-.123v-.517c0-.098.05-.14.14-.14h3.452c.107 0 .189.009.246.025.058.017.115.041.148.082.033.041.057.09.074.148.016.057.016.131.016.221v.976c0 .099-.008.18-.016.246-.009.066-.033.115-.066.148-.033.033-.082.057-.14.074-.057.008-.139.016-.245.016h-2.6c-.05 0-.074.025-.074.074v.213c0 .058.025.082.082.082h3.084c.049 0 .082.008.106.025.025.016.033.057.033.123v.516c0 .099-.04.148-.131.148zm-1.952-4.732c-.082 0-.131-.049-.131-.147v-.542c0-.065.016-.114.041-.123.025-.016.057-.016.09-.016h.992v-1.517c0-.066.017-.107.041-.123.025-.017.058-.025.099-.025h.672c.058 0 .09.017.107.041.008.025.016.066.016.099v3.46c0 .099-.04.14-.13.14h-.673c-.082 0-.131-.041-.131-.131v-1.116h-.993zM35.279 30.293c-.263 0-.5-.057-.706-.18-.213-.123-.393-.287-.54-.509-.148-.213-.263-.475-.345-.779-.082-.303-.123-.631-.123-.992 0-.37.04-.705.123-1.017.082-.312.197-.574.344-.787.148-.222.328-.394.541-.517.214-.123.451-.18.706-.18.262 0 .508.057.721.18.214.123.394.287.541.508.148.214.263.476.345.788.082.311.123.648.123 1.017 0 .369-.041.705-.123 1.008-.082.304-.197.558-.345.78-.147.213-.327.385-.54.5-.214.114-.46.18-.722.18zm0-4.051c-.115 0-.222.041-.32.115-.099.074-.18.188-.246.328-.074.14-.123.311-.164.5-.041.189-.058.41-.058.64 0 .221.017.426.058.615.04.188.09.352.164.492.065.14.156.246.246.328.09.082.205.123.32.123.123 0 .23-.041.328-.123.098-.082.18-.189.246-.328.073-.14.123-.304.164-.492.04-.189.057-.394.057-.615 0-.23-.016-.443-.057-.64s-.09-.36-.164-.5c-.066-.14-.156-.246-.246-.328-.09-.082-.205-.115-.328-.115zm3.222 5.814h-.672c-.05 0-.082-.008-.098-.024-.017-.017-.025-.058-.025-.115v-6.905c0-.058.008-.09.025-.115.016-.016.049-.033.098-.033h.672c.05 0 .083.008.099.033.016.017.024.058.024.115v6.905c0 .057-.008.098-.024.115-.017.008-.05.024-.099.024z"/>
</svg>
