<svg xmlns="http://www.w3.org/2000/svg" width="54" height="54" fill="none" viewBox="0 0 54 54">
    <path fill="#000" d="M36.043 27.165c0 .329-.108.598-.325.847-.216.239-.472.359-.767.359-.295 0-.551-.12-.768-.36-.216-.238-.324-.517-.324-.846 0-.32.108-.608.324-.847.217-.24.473-.359.768-.359.295 0 .551.12.767.359.217.239.325.518.325.847zm-.63 0c0-.14-.039-.27-.127-.359-.09-.1-.197-.14-.325-.14s-.246.05-.325.14c-.089.09-.128.22-.128.359 0 .15.05.269.128.359.089.09.197.14.325.14s.246-.05.325-.14c.078-.1.127-.22.127-.36zm6.082 4.963c-.108.588-.394 1.156-.846 1.714-.463.558-1.122.827-1.978.827-.906 0-1.624-.349-2.165-1.046-.532-.698-.807-1.605-.807-2.691 0-1.096.266-2.003.807-2.7.531-.698 1.25-1.047 2.165-1.047.875 0 1.544.289 1.997.847.463.568.728 1.096.807 1.584h-1.18c-.08-.299-.247-.588-.493-.887-.246-.299-.61-.448-1.102-.448-.56 0-1.004.24-1.338.727-.335.479-.502 1.117-.502 1.914 0 .787.167 1.425.502 1.913.334.489.777.728 1.338.728.463 0 .827-.15 1.092-.459.266-.309.433-.637.522-.976h1.18zM15.398 31.04c-.64 0-1.17-.219-1.584-.657-.413-.438-.62-.977-.62-1.624 0-.658.207-1.196.62-1.635.413-.438.945-.647 1.584-.647.64 0 1.171.219 1.585.647.413.439.62.977.62 1.635 0 .647-.207 1.186-.62 1.624-.414.438-.945.658-1.585.658zm0-3.597c-.344 0-.62.12-.826.369-.197.249-.305.568-.305.947 0 .378.098.697.305.936.196.25.472.37.816.37.345 0 .61-.12.817-.37.207-.249.315-.558.315-.936 0-.39-.098-.698-.305-.947-.197-.24-.472-.369-.817-.369zm3.267 7.853v-2.422h-4.36v-.986h5.423v3.418h-1.063v-.01zm1.073-4.873v1.046h-1.073v-5.232h1.073v1.256h1.26v.987h-1.26v.956h1.26v.987h-1.26zM23.605 33.024c.423.349.915.518 1.476.518.364 0 .66-.09.886-.279.226-.18.334-.448.334-.787 0-.718-.492-1.076-1.486-1.076h-.56v-1.027h.521c.886 0 1.329-.339 1.329-1.007 0-.627-.345-.936-1.024-.936-.423 0-.836.15-1.24.458v-1.106c.433-.25.935-.379 1.516-.379.58 0 1.053.15 1.417.449.364.299.54.717.54 1.245 0 .897-.422 1.465-1.259 1.714v.02c.433.05.788.23 1.053.529.266.299.404.667.404 1.096 0 .658-.217 1.166-.65 1.534-.433.37-1.003.559-1.722.559-.63 0-1.141-.12-1.545-.36v-1.165h.01zM28.683 31.11c0-1.206.197-2.122.59-2.75.394-.628.965-.947 1.712-.947 1.427 0 2.136 1.176 2.136 3.528 0 1.156-.197 2.053-.58 2.68-.385.628-.945.947-1.683.947-1.457 0-2.175-1.146-2.175-3.458zm1.21-.03c0 1.645.335 2.472 1.014 2.472.659 0 .994-.847.994-2.541 0-1.714-.325-2.572-.965-2.572-.698 0-1.043.878-1.043 2.641zM22.71 43.439v-.658H19.54v-.986h7.39v.986h-3.178v.658c.718.06 1.26.25 1.633.548.374.3.561.698.561 1.176 0 .558-.236.987-.699 1.296-.462.308-1.131.458-2.007.458-.866 0-1.535-.15-2.007-.459-.463-.308-.7-.737-.7-1.295 0-.488.188-.887.562-1.186.374-.299.915-.478 1.614-.538zm3.404-2.123c-1.279-.239-2.243-.727-2.883-1.465-.236.31-.63.608-1.19.887-.561.28-1.103.469-1.654.558l-.58-.877c.659-.05 1.25-.209 1.771-.468.521-.269.866-.568 1.023-.907h-2.224v-.986h5.698v.986h-2.214c.177.339.531.648 1.053.927.521.279 1.092.429 1.692.458l-.492.887zm-2.883 3.08c-1.102 0-1.643.259-1.643.767 0 .24.138.429.413.578.276.15.689.21 1.23.21s.955-.07 1.23-.21c.276-.14.414-.339.414-.578 0-.508-.542-.767-1.644-.767zM31.527 42.74c-.807-.438-1.408-1.016-1.82-1.743-.149.338-.414.717-.788 1.136-.374.418-.709.717-.984.887l-.758-.818c.58-.299 1.063-.717 1.437-1.255.374-.548.56-1.106.56-1.684v-1.127h1.024v1.087c0 .578.197 1.116.58 1.604.385.489.857.827 1.408.997l-.66.916zm.088 4.136c-.826 0-1.466-.18-1.929-.528-.462-.349-.688-.807-.688-1.355 0-.558.226-1.007.688-1.356.463-.348 1.102-.528 1.93-.528.826 0 1.465.18 1.928.528.462.36.699.808.699 1.356 0 .558-.237 1.006-.7 1.355-.452.349-1.101.528-1.928.528zm0-2.8c-.521 0-.915.09-1.18.249-.257.17-.394.389-.394.658s.128.488.393.658c.266.169.65.249 1.171.249.522 0 .915-.08 1.181-.25.266-.169.394-.388.394-.657 0-.27-.128-.489-.394-.658-.246-.17-.64-.25-1.17-.25zm1.496-1.037v-2.59h-1.712v-.997h1.712v-1.595h1.013v5.192h-1.013v-.01zM15.103 8.5V7.493h3.208V6.257h1.053v1.236h3.218V8.5h-7.48zm6.682-1.914c-.552-.09-1.093-.289-1.634-.608-.541-.319-.984-.677-1.309-1.086-.285.399-.689.747-1.22 1.056-.531.31-1.092.509-1.673.608l-.55-.917c.865-.05 1.574-.299 2.115-.737.541-.438.817-.857.817-1.256v-.528h1.033v.528c0 .379.275.798.826 1.236.551.439 1.25.698 2.096.777l-.502.927zm-5.59 5.152v-2.7h1.053v1.704h4.34v1.006h-5.393v-.01zM25.967 9.934c-.59-.558-1.024-1.176-1.31-1.854-.127.34-.334.718-.639 1.136-.295.419-.58.738-.836.947l-.748-.767c1.151-.817 1.722-2.053 1.722-3.697V3.586h.994v2.152c0 1.475.512 2.601 1.545 3.379l-.728.817zm1.003 1.923V6.845h-1.16V5.838h1.16v-2.69h1.034v8.71H26.97zm1.634.27V2.957h1.043v9.168h-1.043zM31.556 6.117v.797c1.447 0 2.539-.04 3.277-.11l.069 1.007c-.984.08-2.45.11-4.39.11V3.347h4.026v1.016h-2.982v.787h2.637v.967h-2.637zm4.054 6.01V9.674h-4.24v-.997h5.283v3.458H35.61v-.01zm1.043-5.83V8.28H35.6V2.958h1.053V5.3h1.22v.996h-1.22z"/>
    <path fill="#000" d="M49.042 1.005c-.295-.04-.57.17-.61.468l-1.958 14.39c-.128 0-.256.04-.364.13-.03.02-2.647 2.292-5.57 2.212-1.338-.04-1.948-.727-2.657-1.524-.777-.867-1.653-1.854-3.473-1.854-1.742 0-3.1.947-4.419 1.854-1.19.827-2.312 1.604-3.562 1.524-1.309-.08-2.391-.916-3.434-1.724-1.083-.837-2.214-1.694-3.553-1.654-1.23.05-2.174.777-3.188 1.555-1.131.867-2.302 1.773-4.015 1.823-2.735.08-4.28-1.604-4.634-2.033L5.577 1.473c-.039-.299-.314-.508-.61-.468-.295.04-.502.319-.462.618l6.632 48.223c.246 1.594 2.057 3.159 3.651 3.159h24.384c1.644 0 3.435-1.485 3.76-3.15l6.563-48.232c.05-.3-.157-.568-.453-.618zM41.88 49.676c-.227 1.127-1.555 2.233-2.697 2.233H14.798c-1.063 0-2.42-1.166-2.588-2.223l-4.37-31.8c.936.708 2.402 1.465 4.429 1.406 2.056-.05 3.424-1.107 4.635-2.043.905-.698 1.692-1.296 2.578-1.336.954-.04 1.84.638 2.854 1.425 1.121.867 2.39 1.844 4.024 1.944 1.624.11 2.952-.818 4.242-1.715 1.23-.857 2.39-1.664 3.808-1.664 1.348 0 1.958.698 2.676 1.495.768.867 1.634 1.844 3.434 1.894h.168c2.46 0 4.635-1.356 5.599-2.063l-4.408 32.447z"/>
</svg>
