<svg xmlns="http://www.w3.org/2000/svg" width="54" height="54" fill="none" viewBox="0 0 54 54">
    <g fill="#0F1012" clip-path="url(#clip0)">
        <path d="M49.043 47H4.486c-.423 0-1.287-.205-1.872-.986-.73-.975-.816-2.498-.26-4.537 1.325-4.83 5.098-11.505 8.985-15.867 3.897-4.372 7.929-4.558 8.101-4.567l26.55-1.737c-.604-3.094-1.084-5.612-1.314-6.822-.788-4.206-2.39-4.284-2.41-4.284H18.932c-.327 0-.586-.263-.586-.595 0-.332.279-.605.605-.605h23.315c.23-.02 2.592-.01 3.571 5.25.23 1.259.749 3.943 1.392 7.212.077.097.125.214.134.341 0 .078 0 .147-.029.215 1.767 9.075 4.349 22.21 4.493 22.923.077.273.49 1.863-.327 2.995-.499.703-1.324 1.064-2.457 1.064zm-2.812-26.523l-26.723 1.746c-.058 0-3.744.196-7.286 4.177-3.715 4.177-7.468 10.783-8.725 15.39-.566 2.058-.278 3.034.067 3.493.374.497.931.517.931.517h44.558c.739 0 1.248-.195 1.516-.566.519-.712.144-1.952.144-1.971l-.019-.069c-.048-.175-2.659-13.457-4.463-22.717z"/>
        <path d="M40.194 34.1c0 .331-.106.605-.327.849-.22.234-.47.36-.768.36-.288 0-.547-.116-.768-.36-.21-.244-.326-.517-.326-.85 0-.321.106-.604.326-.848.211-.234.47-.361.768-.361.298 0 .547.117.768.36.22.245.327.528.327.85zm-.624 0c0-.147-.048-.273-.135-.361-.086-.098-.201-.147-.326-.147-.135 0-.24.05-.327.147-.086.097-.134.224-.134.36 0 .147.048.264.134.362.087.097.202.146.327.146.134 0 .24-.049.326-.146.087-.098.135-.215.135-.361zm6.095 4.996c-.106.595-.394 1.161-.855 1.727-.46.556-1.123.84-1.977.84-.912 0-1.632-.352-2.16-1.054-.537-.703-.806-1.61-.806-2.713s.269-2.01.806-2.713c.538-.693 1.258-1.044 2.16-1.044.874 0 1.546.283 1.997.858.46.576.73 1.103.806 1.6h-1.18c-.077-.292-.25-.594-.5-.897-.25-.302-.614-.449-1.104-.449-.556 0-.998.244-1.334.732-.336.488-.499 1.122-.499 1.923 0 .79.163 1.434.5 1.922.335.488.777.732 1.333.732.461 0 .826-.156 1.095-.459.259-.312.432-.634.518-.985h1.2v-.02zM8.431 39.916c0-.41.106-.77.307-1.093.202-.322.49-.556.874-.722-.298-.176-.538-.41-.71-.683-.173-.283-.26-.586-.26-.937 0-.351.087-.673.25-.956.163-.293.393-.517.7-.683.298-.166.634-.254.99-.254.364 0 .7.078.998.244.297.166.537.39.7.673.163.283.25.605.25.956 0 .703-.346 1.24-1.027 1.6.374.157.672.391.883.713.211.322.317.693.317 1.123 0 .624-.192 1.132-.576 1.502-.384.371-.903.556-1.555.556-.643 0-1.162-.185-1.546-.556-.403-.36-.595-.858-.595-1.483zm1.133-.088c0 .361.086.634.269.83.182.195.422.292.73.292.316 0 .565-.097.738-.292.173-.196.26-.479.26-.83 0-.322-.097-.605-.289-.83-.192-.224-.432-.34-.72-.34-.287 0-.527.106-.71.331-.192.224-.278.498-.278.84zm.182-3.25c0 .284.077.518.24.723.163.195.355.302.586.302.23 0 .432-.097.595-.302.163-.205.24-.44.24-.722 0-.313-.077-.557-.221-.732-.154-.166-.355-.254-.614-.254-.26 0-.461.088-.605.263-.144.176-.22.41-.22.723zM13.182 38.394c0-1.24.192-2.186.586-2.83.384-.644.95-.966 1.69-.966 1.41 0 2.111 1.21 2.111 3.64 0 1.19-.192 2.117-.576 2.761-.384.644-.94.966-1.66.966-1.43-.01-2.15-1.19-2.15-3.571zm1.2-.04c0 1.699.336 2.548.999 2.548.652 0 .979-.869.979-2.616 0-1.766-.317-2.644-.96-2.644-.672 0-1.018.907-1.018 2.713zM22.397 38.032c-.019.547-.144.966-.383 1.279-.23.302-.548.458-.941.458-.307 0-.682-.156-1.123-.468-.307-.215-.538-.322-.691-.322-.375 0-.567.273-.576.82h-.797c.02-.557.154-.976.393-1.279.24-.302.557-.449.941-.449.317 0 .653.137 1.027.4.375.264.643.4.807.4.163 0 .288-.078.393-.224.096-.146.154-.351.154-.605h.796v-.01zM25.834 34.588v7.24h-1.18v-5.6c-.135.136-.318.263-.567.39-.24.117-.5.195-.759.234v-1.2c.624-.215 1.21-.566 1.757-1.064h.749zM28.349 40.697h2.64v1.141H27.09v-.536c0-.38.058-.742.173-1.064.115-.322.278-.624.49-.907.21-.284.662-.713 1.343-1.298.27-.225.461-.44.576-.644.115-.205.173-.44.173-.693 0-.313-.077-.566-.24-.742-.163-.176-.413-.263-.758-.263-.538 0-1.046.244-1.536.722v-1.22c.5-.4 1.075-.605 1.708-.605.644 0 1.143.175 1.498.537.355.36.528.849.528 1.483 0 .322-.048.615-.134.868-.096.254-.212.479-.365.684-.154.204-.327.4-.519.575-.192.176-.393.352-.604.527-.384.322-.653.596-.816.83-.163.234-.26.429-.26.605zM31.392 38.394c0-1.24.192-2.186.585-2.83.384-.644.95-.966 1.69-.966 1.41 0 2.111 1.21 2.111 3.64 0 1.19-.192 2.117-.576 2.761-.384.644-.94.966-1.66.966-1.43-.01-2.15-1.19-2.15-3.571zm1.2-.04c0 1.699.335 2.548.998 2.548.652 0 .979-.869.979-2.616 0-1.766-.317-2.644-.96-2.644-.672 0-1.018.907-1.018 2.713z"/>
    </g>
    <defs>
        <clipPath id="clip0">
            <path fill="#fff" d="M0 0H50V40H0z" transform="translate(2 7)"/>
        </clipPath>
    </defs>
</svg>
