<svg xmlns="http://www.w3.org/2000/svg" width="54" height="54" fill="none" viewBox="0 0 54 54">
    <g fill="#000" clip-path="url(#clip0)">
        <path d="M49.058 43.821H4.732c-.42 0-1.28-.207-1.863-.993-.726-.984-.812-2.519-.258-4.575 1.318-4.869 5.072-11.597 8.94-15.994 3.878-4.407 7.89-4.594 8.061-4.604l26.419-1.75c-.602-3.119-1.08-5.657-1.309-6.877-.783-4.24-2.378-4.318-2.397-4.318H19.106c-.325 0-.583-.266-.583-.6 0-.334.268-.61.593-.61h23.2c.228-.02 2.578-.01 3.552 5.292.23 1.27.745 3.974 1.385 7.27.077.098.124.216.134.344 0 .079 0 .148-.029.216 1.758 9.149 4.327 22.389 4.47 23.107.076.275.487 1.879-.325 3.02-.496.708-1.318 1.072-2.445 1.072zM46.26 17.085l-26.59 1.77c-.058 0-3.725.197-7.25 4.21-3.696 4.21-7.43 10.87-8.682 15.513-.563 2.076-.277 3.06.067 3.522.373.501.927.52.927.52h44.336c.735 0 1.241-.196 1.509-.57.516-.718.143-1.967.143-1.987l-.019-.069c-.048-.186-2.646-13.574-4.441-22.91z"/>
        <path d="M41.828 30.816c0 .335-.105.61-.325.856-.22.236-.468.364-.764.364-.286 0-.544-.118-.764-.364-.21-.246-.325-.521-.325-.856 0-.324.106-.61.325-.855.21-.236.468-.364.764-.364s.545.118.764.364c.21.246.325.53.325.855zm-.63 0c0-.147-.048-.275-.134-.363-.086-.099-.2-.148-.325-.148-.133 0-.238.05-.324.148-.086.098-.134.226-.134.363 0 .148.048.266.134.364.086.099.2.148.324.148.134 0 .24-.05.325-.148.096-.098.134-.216.134-.364zm6.065 5.037c-.105.6-.392 1.17-.85 1.741-.459.56-1.118.846-1.968.846-.907 0-1.623-.354-2.149-1.063-.535-.708-.802-1.623-.802-2.734 0-1.112.267-2.026.802-2.735.535-.698 1.251-1.052 2.15-1.052.868 0 1.537.285 1.986.865.458.58.726 1.112.802 1.614H46.06c-.076-.296-.248-.6-.496-.905-.249-.305-.612-.453-1.099-.453-.554 0-.993.246-1.327.738-.335.492-.497 1.131-.497 1.938 0 .797.162 1.446.497 1.938.334.491.773.737 1.327.737.459 0 .822-.157 1.09-.462.257-.315.429-.64.515-.993h1.194v-.02zM11.761 36.68c0-.414.105-.778.306-1.102.2-.325.487-.561.869-.728-.296-.177-.535-.413-.707-.689-.172-.285-.258-.59-.258-.944s.086-.679.249-.964c.162-.295.391-.521.697-.689.296-.167.63-.255.984-.255.363 0 .697.078.993.245.296.168.535.394.697.68.163.285.248.61.248.963 0 .709-.343 1.25-1.021 1.613.372.158.668.394.878.719.21.324.316.698.316 1.13 0 .63-.192 1.142-.574 1.516-.382.373-.897.56-1.547.56-.64 0-1.156-.187-1.538-.56-.4-.364-.592-.866-.592-1.495zm1.127-.09c0 .365.086.64.268.837.181.197.42.295.726.295.315 0 .563-.098.735-.295.172-.197.258-.482.258-.836 0-.325-.096-.61-.287-.836-.19-.226-.43-.345-.716-.345-.287 0-.525.109-.707.335-.181.226-.277.502-.277.846zm.191-3.275c0 .286.077.522.24.728.161.197.352.305.582.305.229 0 .43-.098.592-.305.162-.206.239-.442.239-.728 0-.314-.077-.56-.22-.737-.153-.178-.353-.266-.611-.266s-.459.089-.602.266c-.153.186-.22.422-.22.737zM16.498 35.145c0-1.25.192-2.204.583-2.853.382-.649.946-.974 1.681-.974 1.404 0 2.101 1.22 2.101 3.67 0 1.2-.19 2.134-.573 2.783-.382.65-.936.974-1.652.974-1.433-.01-2.14-1.2-2.14-3.6zm1.194-.04c0 1.712.335 2.568.994 2.568.65 0 .974-.876.974-2.636 0-1.78-.315-2.666-.955-2.666-.678 0-1.013.915-1.013 2.734zM25.658 34.781c-.019.551-.143.974-.382 1.289-.23.305-.544.462-.936.462-.306 0-.678-.157-1.117-.472-.306-.216-.535-.325-.688-.325-.373 0-.564.276-.573.827h-.793c.02-.561.153-.984.392-1.289.238-.305.554-.452.936-.452.315 0 .65.137 1.022.403s.64.403.802.403c.162 0 .287-.079.391-.226.096-.148.153-.354.153-.61h.793v-.01zM29.077 31.309v7.299h-1.175V32.96c-.133.138-.315.266-.563.394-.239.118-.497.196-.755.236v-1.21c.621-.217 1.204-.57 1.748-1.072h.745zM31.58 37.466h2.626v1.151H30.33v-.54c0-.384.057-.748.171-1.073.115-.325.277-.63.488-.915.21-.285.659-.718 1.337-1.308.267-.226.458-.443.573-.65.114-.206.172-.442.172-.698 0-.314-.077-.57-.239-.747-.162-.177-.41-.266-.755-.266-.534 0-1.04.246-1.528.728v-1.23c.497-.403 1.07-.61 1.7-.61.64 0 1.137.178 1.49.542.354.364.526.855.526 1.495 0 .324-.048.62-.134.875-.096.256-.21.482-.363.689-.153.206-.325.403-.516.58-.19.177-.391.354-.601.531-.383.325-.65.6-.812.836-.163.237-.258.433-.258.61zM34.264 35.145c0-1.25.19-2.204.582-2.853.382-.649.946-.974 1.681-.974 1.404 0 2.102 1.22 2.102 3.67 0 1.2-.191 2.134-.573 2.783-.383.65-.936.974-1.653.974-1.423-.01-2.14-1.2-2.14-3.6zm1.194-.04c0 1.712.334 2.568.993 2.568.65 0 .974-.876.974-2.636 0-1.78-.315-2.666-.955-2.666-.669 0-1.012.915-1.012 2.734zM2.44 50.038c4.25 1.289 7.516-5.115 11.508-2.547 1.748 1.13 3.028 2.99 5.282 3 1.9.01 3.572-1.17 5.158-2.105 1.05-.62 2.216-1.358 3.467-1.378 1.366-.02 2.32.915 3.38 1.663 1.863 1.318 3.583 1.505 5.684.659 2.101-.836 4.355-2.764 6.724-2.272 2.684.55 4.374 3.452 7.364 2.282.754-.295.43-1.554-.335-1.26-2.779 1.093-4.995-2.42-7.812-2.4-1.987.01-3.764 1.2-5.502 2.037-1.318.63-2.684 1.17-4.116.63-1.242-.463-2.12-1.555-3.295-2.145-1.51-.758-3.028-.531-4.518.148-1.92.875-3.811 2.744-5.989 2.832-2.416.099-3.792-2.577-5.902-3.393-4.107-1.604-6.887 4.16-10.764 2.98-.774-.216-1.108 1.033-.335 1.27z"/>
    </g>
    <defs>
        <clipPath id="clip0">
            <path fill="#fff" d="M0 0H50V47H0z" transform="translate(2 3.5)"/>
        </clipPath>
    </defs>
</svg>
