<svg xmlns="http://www.w3.org/2000/svg" width="54" height="54" fill="none" viewBox="0 0 54 54">
    <g fill="#000" clip-path="url(#clip0)">
        <path d="M49.043 47H4.486c-.423 0-1.286-.205-1.872-.986-.73-.975-.816-2.498-.26-4.537 1.325-4.83 5.098-11.505 8.985-15.867 3.897-4.372 7.929-4.558 8.102-4.567l26.55-1.737c-.605-3.094-1.085-5.612-1.315-6.822-.787-4.206-2.39-4.284-2.41-4.284H18.933c-.326 0-.586-.263-.586-.595 0-.332.279-.605.605-.605h23.316c.23-.02 2.591-.01 3.57 5.25.23 1.259.749 3.943 1.392 7.212.077.097.125.214.135.341 0 .078 0 .147-.03.215 1.767 9.075 4.349 22.21 4.493 22.923.077.273.49 1.863-.326 2.995C51 46.64 50.176 47 49.043 47zm-2.812-26.523l-26.723 1.746c-.058 0-3.744.196-7.286 4.177-3.714 4.177-7.467 10.783-8.725 15.39-.566 2.058-.278 3.034.067 3.493.375.497.931.517.931.517h44.558c.739 0 1.248-.195 1.517-.566.518-.712.144-1.952.144-1.971l-.02-.069c-.048-.175-2.659-13.457-4.463-22.717z"/>
        <path d="M42.228 34.1c0 .331-.105.605-.326.849-.22.234-.47.36-.768.36-.288 0-.547-.116-.768-.36-.21-.244-.326-.517-.326-.85 0-.321.105-.604.326-.848.211-.234.47-.361.768-.361.298 0 .547.117.768.36.22.245.326.528.326.85zm-.623 0c0-.147-.048-.273-.135-.361-.086-.098-.201-.147-.326-.147-.135 0-.24.05-.327.147-.086.097-.134.224-.134.36 0 .147.048.264.134.362.087.097.202.146.327.146.134 0 .24-.049.326-.146.087-.098.135-.215.135-.361zm6.095 4.996c-.106.595-.394 1.161-.855 1.727-.46.556-1.123.84-1.977.84-.912 0-1.632-.352-2.16-1.054-.537-.703-.806-1.61-.806-2.713s.269-2.01.806-2.713c.538-.693 1.258-1.044 2.16-1.044.874 0 1.545.283 1.997.858.46.576.73 1.103.806 1.6h-1.18c-.078-.292-.25-.594-.5-.897-.25-.302-.614-.449-1.104-.449-.556 0-.998.244-1.334.732-.336.488-.5 1.122-.5 1.923 0 .79.164 1.434.5 1.922.336.488.778.732 1.334.732.461 0 .826-.156 1.095-.459.259-.312.431-.634.518-.985h1.2v-.02zM10.658 34.587v7.24h-1.18v-5.6c-.135.136-.317.263-.567.39-.24.117-.499.195-.758.234v-1.2c.624-.215 1.21-.566 1.756-1.064h.75zM11.81 39.915c0-.41.105-.77.307-1.093.202-.322.49-.556.874-.722-.298-.176-.538-.41-.71-.683-.174-.283-.26-.586-.26-.937 0-.351.086-.673.25-.956.163-.293.393-.517.7-.683.298-.166.634-.254.99-.254.364 0 .7.078.997.244.298.166.538.39.701.673.163.283.25.605.25.957 0 .702-.346 1.239-1.027 1.6.374.156.671.39.883.712.21.322.316.693.316 1.122 0 .625-.192 1.133-.575 1.503-.385.371-.903.557-1.556.557-.643 0-1.161-.186-1.545-.557-.403-.36-.595-.858-.595-1.483zm1.133-.088c0 .361.086.635.268.83.183.195.423.292.73.292.317 0 .566-.097.739-.292.173-.195.26-.478.26-.83 0-.322-.097-.605-.289-.83-.192-.224-.432-.34-.72-.34s-.528.107-.71.331c-.182.224-.278.498-.278.84zm.192-3.25c0 .284.076.518.24.723.163.195.355.302.585.302.23 0 .432-.097.595-.302.163-.205.24-.44.24-.722 0-.313-.077-.557-.22-.732-.154-.176-.356-.264-.615-.264-.26 0-.46.088-.605.264-.153.185-.22.42-.22.732zM16.57 38.393c0-1.24.193-2.186.586-2.83.384-.644.95-.966 1.69-.966 1.41 0 2.112 1.21 2.112 3.64 0 1.19-.192 2.117-.576 2.761-.384.644-.941.966-1.661.966-1.44-.01-2.15-1.19-2.15-3.571zm1.2-.04c0 1.699.337 2.548.999 2.548.653 0 .98-.869.98-2.616 0-1.766-.318-2.644-.96-2.644-.682 0-1.018.907-1.018 2.713zM25.786 38.031c-.02.547-.144.966-.384 1.279-.23.302-.547.458-.94.458-.308 0-.682-.156-1.124-.468-.307-.215-.538-.322-.691-.322-.374 0-.566.273-.576.82h-.797c.02-.557.154-.976.394-1.279.24-.302.557-.449.94-.449.317 0 .653.137 1.028.4.374.264.643.4.806.4.163 0 .288-.078.393-.224.096-.146.154-.351.154-.605h.797v-.01zM27.571 40.696h2.64v1.142h-3.897V41.3c0-.38.057-.742.172-1.064.116-.322.279-.625.49-.907.211-.283.662-.713 1.344-1.298.269-.225.46-.44.576-.644.115-.205.173-.44.173-.693 0-.313-.077-.566-.24-.742-.164-.176-.413-.263-.759-.263-.537 0-1.046.244-1.535.722v-1.22c.499-.4 1.075-.605 1.708-.605.643 0 1.142.176 1.498.537.355.36.527.849.527 1.483 0 .322-.048.615-.134.868-.096.254-.211.479-.365.683-.153.205-.326.4-.518.576-.192.176-.394.352-.605.527-.384.322-.652.595-.816.83-.172.224-.259.43-.259.605zM33.378 34.587v7.24h-1.18v-5.6c-.135.136-.317.263-.567.39-.24.117-.499.195-.758.234v-1.2c.624-.215 1.21-.566 1.757-1.064h.748zM34.425 38.393c0-1.24.192-2.186.585-2.83.384-.644.95-.966 1.69-.966 1.41 0 2.111 1.21 2.111 3.64 0 1.19-.192 2.117-.576 2.761-.384.644-.94.966-1.66.966-1.43-.01-2.15-1.19-2.15-3.571zm1.2-.04c0 1.699.336 2.548.998 2.548.653 0 .979-.869.979-2.616 0-1.766-.317-2.644-.96-2.644-.672 0-1.018.907-1.018 2.713z"/>
    </g>
    <defs>
        <clipPath id="clip0">
            <path fill="#fff" d="M0 0H50V40H0z" transform="translate(2 7)"/>
        </clipPath>
    </defs>
</svg>
