<svg xmlns="http://www.w3.org/2000/svg" width="54" height="54" fill="none" viewBox="0 0 54 54">
    <g fill="#000" clip-path="url(#clip0)">
        <path d="M49.043 43.28H4.486c-.423 0-1.286-.204-1.872-.98-.73-.97-.816-2.485-.26-4.513 1.325-4.804 5.098-11.442 8.985-15.78 3.897-4.348 7.929-4.532 8.102-4.542l26.55-1.727c-.605-3.077-1.085-5.58-1.315-6.784-.787-4.183-2.39-4.26-2.41-4.26H18.933c-.326 0-.586-.262-.586-.592 0-.33.279-.602.605-.602h23.316c.23-.02 2.591-.01 3.57 5.221.23 1.252.749 3.921 1.392 7.172.077.097.125.214.135.34 0 .077 0 .145-.03.213 1.767 9.026 4.349 22.088 4.493 22.797.077.271.49 1.853-.326 2.979-.5.699-1.325 1.058-2.458 1.058zm-2.812-26.378L19.508 18.64c-.058 0-3.744.194-7.286 4.153-3.714 4.154-7.467 10.724-8.725 15.304-.566 2.048-.278 3.019.067 3.475.375.495.931.514.931.514h44.558c.739 0 1.248-.194 1.517-.563.518-.708.144-1.94.144-1.96l-.02-.068c-.048-.175-2.659-13.383-4.463-22.593z"/>
        <path d="M5.052 50.5c-.153 0-.297-.058-.412-.174-.23-.233-.23-.602 0-.835L48.593 4.83c.23-.233.604-.233.825 0 .23.233.23.602 0 .835L5.475 50.325c-.115.117-.269.175-.423.175z"/>
        <path d="M48.976 50.5c-.153 0-.297-.058-.412-.174L4.61 5.665c-.23-.233-.23-.612 0-.835.23-.233.605-.233.825 0L49.38 49.491c.23.233.23.611 0 .835-.106.116-.26.174-.404.174z"/>
    </g>
    <defs>
        <clipPath id="clip0">
            <path fill="#fff" d="M0 0H50V47H0z" transform="translate(2 3.5)"/>
        </clipPath>
    </defs>
</svg>
