<svg xmlns="http://www.w3.org/2000/svg" width="54" height="54" fill="none" viewBox="0 0 54 54">
    <g fill="#000" clip-path="url(#clip0)">
        <path d="M49.073 43.821H4.965c-.418 0-1.274-.207-1.853-.993-.722-.984-.808-2.519-.257-4.575 1.312-4.869 5.046-11.597 8.894-15.994 3.858-4.407 7.849-4.594 8.02-4.604l26.283-1.75c-.59-3.129-1.065-5.657-1.292-6.886-.78-4.24-2.366-4.319-2.386-4.319h-23.1c-.322 0-.579-.265-.579-.6 0-.334.266-.6.59-.6h23.08c.228-.02 2.566-.01 3.535 5.292.228 1.27.74 3.974 1.378 7.27.075.098.123.216.133.344 0 .079 0 .148-.029.216 1.748 9.149 4.305 22.389 4.447 23.107.076.275.485 1.879-.323 3.02-.494.708-1.311 1.072-2.433 1.072zM46.29 17.085l-26.454 1.76c-.056 0-3.705.197-7.212 4.21-3.686 4.21-7.402 10.88-8.646 15.523-.561 2.076-.276 3.06.066 3.522.37.501.922.52.922.52h44.108c.732 0 1.236-.196 1.502-.57.513-.718.142-1.967.142-1.987l-.019-.069c-.038-.186-2.622-13.574-4.409-22.91z"/>
        <path d="M42.327 30.816c0 .335-.105.61-.323.856-.219.236-.466.364-.76.364-.285 0-.542-.118-.76-.364-.21-.246-.324-.521-.324-.856 0-.324.105-.61.324-.855.209-.236.465-.364.76-.364.294 0 .541.118.76.364.218.246.323.53.323.855zm-.618 0c0-.147-.047-.275-.133-.363-.085-.099-.2-.148-.323-.148-.133 0-.237.05-.323.148-.085.098-.133.226-.133.363 0 .148.048.266.133.364.086.099.2.148.323.148.133 0 .238-.05.323-.148.086-.098.133-.216.133-.364zm6.034 5.037c-.105.6-.39 1.17-.846 1.741-.456.56-1.111.846-1.957.846-.903 0-1.615-.354-2.138-1.063-.532-.708-.798-1.623-.798-2.734 0-1.112.266-2.026.798-2.735.532-.698 1.245-1.052 2.138-1.052.865 0 1.53.285 1.976.865.457.58.723 1.112.799 1.614h-1.17c-.075-.296-.246-.6-.493-.905-.247-.305-.608-.453-1.093-.453-.551 0-.988.246-1.32.738-.333.492-.495 1.131-.495 1.938 0 .797.162 1.446.494 1.938.333.491.77.737 1.321.737.456 0 .817-.157 1.083-.462.257-.315.428-.64.513-.993h1.188v-.02zM11.075 31.309v7.299h-1.17V32.96c-.132.138-.313.266-.56.394-.237.118-.494.196-.75.236v-1.21c.617-.217 1.197-.57 1.738-1.072h.742zM15.436 31.427v4.603h.741v.994h-.741v1.584h-1.083v-1.584h-2.69V35.97c.561-.747 1.084-1.534 1.569-2.34.484-.817.845-1.555 1.102-2.204h1.102zm-2.775 4.603h1.692v-2.783c-.171.354-.409.796-.722 1.318-.314.521-.637 1.013-.97 1.465zM16.415 35.145c0-1.25.19-2.204.58-2.853.38-.649.94-.974 1.672-.974 1.396 0 2.09 1.22 2.09 3.67 0 1.2-.19 2.134-.57 2.783-.38.65-.931.974-1.644.974-1.425-.01-2.128-1.2-2.128-3.6zm1.178-.04c0 1.712.332 2.568.988 2.568.646 0 .97-.876.97-2.636 0-1.78-.314-2.666-.95-2.666-.666 0-1.008.915-1.008 2.734zM25.527 34.781c-.019.551-.142.974-.38 1.289-.228.305-.541.462-.931.462-.304 0-.675-.157-1.112-.472-.304-.216-.532-.325-.684-.325-.37 0-.56.276-.57.827h-.789c.02-.561.152-.984.39-1.289.237-.305.551-.452.931-.452.314 0 .646.137 1.017.403.37.266.636.403.798.403.162 0 .285-.079.39-.226.095-.148.152-.354.152-.61h.788v-.01zM28.929 31.309v7.299H27.76V32.96c-.133.138-.313.266-.56.394-.238.118-.495.196-.751.236v-1.21c.617-.217 1.197-.57 1.739-1.072h.74zM33.727 32.676c-.313-.197-.646-.305-1.016-.305-.494 0-.893.236-1.178.698-.295.463-.438 1.063-.438 1.79h.029c.295-.56.741-.836 1.33-.836.523 0 .931.207 1.245.62.304.413.466.945.466 1.604 0 .728-.2 1.318-.59 1.79-.39.462-.883.698-1.491.698-.694 0-1.226-.295-1.597-.895-.37-.6-.55-1.407-.55-2.43 0-1.21.237-2.203.721-2.96.485-.758 1.15-1.141 1.996-1.141.465 0 .836.068 1.083.196v1.17h-.01zm-2.603 3.58c0 .384.085.719.257 1.004.17.275.399.423.684.423.285 0 .503-.128.674-.374.162-.246.247-.57.247-.944 0-.856-.304-1.289-.921-1.289-.276 0-.504.108-.675.334-.171.217-.266.502-.266.847zM34.43 35.145c0-1.25.19-2.204.58-2.853.38-.649.941-.974 1.673-.974 1.397 0 2.09 1.22 2.09 3.67 0 1.2-.19 2.134-.57 2.783-.38.65-.931.974-1.644.974-1.416-.01-2.128-1.2-2.128-3.6zm1.188-.04c0 1.712.333 2.568.989 2.568.646 0 .969-.876.969-2.636 0-1.78-.314-2.666-.95-2.666-.665 0-1.008.915-1.008 2.734zM2.437 50.038c4.229 1.289 7.478-5.115 11.45-2.547 1.739 1.13 3.012 2.99 5.255 3 1.89.01 3.554-1.17 5.13-2.105 1.046-.62 2.205-1.358 3.45-1.378 1.359-.02 2.31.915 3.364 1.663 1.853 1.318 3.563 1.505 5.654.659 2.09-.836 4.333-2.764 6.69-2.272 2.67.55 4.351 3.452 7.325 2.282.75-.295.428-1.554-.332-1.26-2.765 1.093-4.97-2.42-7.773-2.4-1.977.01-3.744 1.2-5.473 2.037-1.312.63-2.67 1.17-4.096.63-1.235-.463-2.11-1.555-3.278-2.145-1.501-.758-3.012-.531-4.494.148-1.91.875-3.792 2.744-5.958 2.832-2.404.099-3.772-2.577-5.872-3.393-4.086-1.604-6.851 4.16-10.71 2.98-.769-.216-1.102 1.033-.332 1.27z"/>
    </g>
    <defs>
        <clipPath id="clip0">
            <path fill="#fff" d="M0 0H50V47H0z" transform="translate(2 3.5)"/>
        </clipPath>
    </defs>
</svg>
