<svg xmlns="http://www.w3.org/2000/svg" width="54" height="54" fill="none" viewBox="0 0 54 54">
    <path fill="#E83C19" d="M51.398 48H2.602c-.214 0-.413-.113-.52-.299-.107-.185-.107-.411 0-.589L26.48 6.29c.107-.177.306-.29.52-.29.215 0 .413.113.52.29l24.398 40.822c.107.186.107.404 0 .59-.108.185-.306.298-.52.298zM3.651 46.822H50.34L27 7.759 3.652 46.822z"/>
    <path fill="#E83C19" d="M27.61 35.885v-.615c0-.87.24-1.095 1.005-1.83.93-.885 1.785-1.635 1.785-3.105v-.21c0-1.635-1.275-2.805-3.48-2.805-1.29 0-2.49.42-3.45 1.38l1.05 1.32c.645-.615 1.41-1.005 2.34-1.005 1.185 0 1.62.555 1.62 1.17v.15c0 .78-.165 1.08-1.5 2.31-1.14 1.05-1.155 1.575-1.155 2.58v.66h1.785zm-1.875 3.195h1.98v-1.95h-1.98v1.95z"/>
</svg>
