<svg xmlns="http://www.w3.org/2000/svg" width="54" height="54" fill="none" viewBox="0 0 54 54">
    <path fill="#000" d="M51.398 48H2.602c-.214 0-.413-.113-.52-.299-.107-.185-.107-.411 0-.589L26.48 6.29c.107-.177.306-.29.52-.29.215 0 .413.113.52.29l24.398 40.822c.107.186.107.404 0 .59-.108.185-.306.298-.52.298zM3.651 46.822H50.34L27 7.759 3.652 46.822z"/>
    <path fill="#000" d="M17.048 37.211c-.652-.339-1.165-.83-1.536-1.484-.124.282-.355.605-.678.96-.322.363-.594.605-.825.742l-.636-.694c.479-.226.875-.573 1.197-1.033.322-.468.487-.936.487-1.42v-1h.876v.968c0 .476.165.92.487 1.34.33.419.727.701 1.19.838l-.562.783zm-2.354 2.913V37.68h.884v1.638h3.526v.807h-4.41zm4.212-4.107V38.3h-.867v-5.333h.867v2.235h1.033v.807h-1.033v.008zM20.211 39.358v-.791h2.684v-1.686h.884v1.686h2.692v.79h-6.26zm5.542-2.34c-.479-.154-.942-.396-1.396-.727-.446-.33-.793-.67-1.024-1.032-.231.379-.57.726-1.016 1.057-.446.33-.908.565-1.404.71l-.512-.75c.801-.194 1.42-.517 1.85-.969.43-.452.644-.888.644-1.307v-.549h.884V34c0 .411.215.847.644 1.299.43.46 1.04.783 1.834.968l-.504.75zM27.942 39.373v-.798h1.577v-1.308h-1.008v-.79h.958l-.074-1.727h.876l.057 1.727h1.479l.066-1.727h.875l-.099 1.727h.975v.79h-1v1.308h1.578v.798h-6.26zm.619-4.962v-.79h5.013v.79h-5.013zm1.825 4.155h1.363V37.26h-1.363v1.307zM34.5 36.719v-3.446h.867v1.009h.974v-1.009h.859v3.446h-2.7zm1.841-1.638h-.974v.83h.974v-.83zm2.874 5.293v-2.001h-3.6v-.815h4.476v2.824h-.876v-.008zm.008-3.13V35.67h-.528v1.573h-.86v-4.115h.86v1.735h.528v-1.888h.868v4.268h-.868z"/>
</svg>
