<svg xmlns="http://www.w3.org/2000/svg" width="54" height="54" fill="none" viewBox="0 0 54 54">
    <path fill="#000" d="M51.398 45.274H2.602c-.214 0-.413-.114-.52-.3-.107-.187-.107-.415 0-.593L26.48 3.292c.107-.178.306-.292.52-.292.215 0 .413.114.52.292l24.398 41.089c.107.187.107.406 0 .593-.108.186-.306.3-.52.3zM3.651 44.088H50.34L27 4.771 3.652 44.088z"/>
    <path fill="#000" d="M14.694 33.57c-.355.431-.818.642-1.388.642-.511 0-.941-.178-1.288-.544-.347-.357-.52-.828-.52-1.413 0-.577.173-1.04.512-1.405.338-.366.776-.544 1.296-.544.645 0 1.149.268 1.495.804h1.413v-.959h.867v4.33h-.867v-.91h-1.52zm-1.38-2.468c-.28 0-.511.105-.685.308-.173.203-.264.488-.264.845s.09.633.264.837c.174.203.405.308.686.308.28 0 .512-.105.685-.308.174-.204.265-.488.265-.837 0-.357-.091-.642-.265-.845-.173-.203-.404-.308-.685-.308zm-.437 6.343v-2.656h4.22v2.656h-4.22zm3.361-1.852h-2.502v1.04h2.502v-1.04zm-1.18-2.81h1.156v-.894h-1.132c.025.114.033.236.033.366.008.179-.016.357-.058.528zM17.899 36.576v-.796h2.684v-1.697h.883v1.697h2.693v.796h-6.26zm5.541-2.355c-.479-.155-.941-.398-1.395-.731-.446-.333-.793-.674-1.025-1.04-.23.382-.57.731-1.015 1.064-.446.333-.909.569-1.404.715l-.512-.755c.8-.195 1.42-.52 1.85-.975.429-.455.644-.894.644-1.316v-.552h.883v.552c0 .414.215.853.645 1.308.43.463 1.04.788 1.833.974l-.504.756zM30.378 36.592v-.804h1.577v-1.316h-.999v-.796h.958l-.074-1.738h.875l.058 1.738h1.478l.067-1.738h.875l-.1 1.738h.975v.796h-.999v1.316h1.578v.804h-6.27zm.62-4.995V30.8h5.013v.796h-5.014zm1.825 4.182h1.362v-1.315h-1.362v1.316zM36.647 33.92v-3.468h.867v1.015h.974v-1.015h.86v3.468h-2.701zm1.841-1.649h-.974v.837h.974v-.837zm2.874 5.328v-2.014h-3.6v-.82h4.476v2.842h-.876V37.6zm.009-3.151v-1.584h-.529v1.584h-.859v-4.142h.86v1.746h.528v-1.9h.867v4.296h-.867zM40.43 51c-.174 0-.348-.074-.463-.212L9.813 15.353c-.215-.252-.182-.626.074-.837.256-.21.636-.178.851.073l30.154 35.436c.214.252.181.625-.075.836-.115.09-.247.139-.388.139z"/>
    <path fill="#000" d="M12.993 51c-.14 0-.273-.048-.389-.138-.255-.211-.288-.585-.074-.836l30.154-35.428c.215-.252.595-.284.85-.073.257.211.29.585.075.837L13.455 50.78c-.115.146-.289.22-.462.22z"/>
</svg>
