<svg xmlns="http://www.w3.org/2000/svg" width="54" height="54" fill="none" viewBox="0 0 54 54">
    <path fill="#000" d="M43.88 53H10.12c-1.447 0-2.62-1.201-2.62-2.682V3.682C7.5 2.202 8.673 1 10.12 1h33.76c1.447 0 2.62 1.201 2.62 2.682v46.646c0 1.47-1.173 2.672-2.62 2.672zM10.12 2.14c-.83 0-1.507.693-1.507 1.542v46.646c0 .85.677 1.543 1.507 1.543h33.76c.83 0 1.507-.694 1.507-1.543V3.682c0-.849-.677-1.543-1.507-1.543H10.12z"/>
    <path fill="#000" d="M45.944 11.16H8.056v1.138h37.888V11.16zM39.865 9.906c-1.628 0-2.963-1.356-2.963-3.034 0-1.678 1.335-3.024 2.963-3.024 1.628 0 2.963 1.356 2.963 3.034 0 1.678-1.325 3.024-2.963 3.024zm0-4.93c-1.022 0-1.85.85-1.85 1.896 0 1.046.828 1.895 1.85 1.895 1.022 0 1.85-.85 1.85-1.895 0-1.046-.828-1.895-1.85-1.895zM32.017 28.206c0 .352-.112.652-.344.911-.233.259-.506.383-.81.383-.313 0-.586-.124-.808-.383-.233-.259-.344-.56-.344-.911 0-.352.11-.653.344-.912.232-.259.505-.383.809-.383.313 0 .586.124.809.383.222.26.344.56.344.912zm-.668 0c0-.156-.05-.29-.142-.394-.09-.103-.212-.155-.354-.155-.141 0-.252.052-.354.155-.09.104-.141.238-.141.394 0 .155.05.29.142.393.09.104.212.156.354.156.141 0 .252-.052.354-.156.09-.114.141-.238.141-.393zm6.483 5.354c-.111.632-.415 1.253-.9 1.843-.495.601-1.193.891-2.104.891-.97 0-1.73-.373-2.306-1.129-.566-.756-.86-1.719-.86-2.9 0-1.18.284-2.154.86-2.91.567-.745 1.335-1.118 2.306-1.118.93 0 1.639.31 2.124.922.486.61.769 1.18.86 1.708h-1.254c-.091-.32-.263-.631-.526-.953-.263-.32-.657-.476-1.173-.476-.597 0-1.062.259-1.426.777-.354.518-.536 1.201-.536 2.06 0 .85.172 1.534.536 2.062.354.528.829.787 1.426.787.495 0 .88-.166 1.163-.497.283-.332.465-.684.556-1.057h1.254v-.01zM20.83 29.894c-.333-.207-.708-.31-1.112-.31-.536 0-.971.238-1.285.724-.313.487-.475 1.109-.475 1.865h.03c.324-.58.8-.87 1.447-.87.566 0 1.021.217 1.355.642.334.424.506.984.506 1.667 0 .756-.213 1.367-.637 1.854-.425.487-.971.725-1.619.725-.758 0-1.335-.31-1.74-.922-.404-.621-.596-1.46-.596-2.516 0-1.253.263-2.279.789-3.076.526-.787 1.244-1.18 2.174-1.18.516 0 .91.072 1.184.206v1.191h-.02zM18 33.612c0 .404.09.746.283 1.036.182.29.435.435.748.435.303 0 .546-.135.728-.394.182-.259.273-.59.273-.984 0-.89-.333-1.336-1-1.336-.304 0-.547.114-.74.352-.201.239-.293.54-.293.891zM22.833 32.453c0-1.294.212-2.278.627-2.962.415-.673 1.032-1.014 1.82-1.014 1.518 0 2.276 1.263 2.276 3.8 0 1.254-.202 2.206-.617 2.89-.414.673-1.011 1.015-1.79 1.015-1.547 0-2.316-1.243-2.316-3.729zm1.295-.03c0 1.77.364 2.661 1.082 2.661.708 0 1.052-.911 1.052-2.734 0-1.844-.344-2.765-1.032-2.765-.738 0-1.102.942-1.102 2.837z"/>
</svg>
