<svg xmlns="http://www.w3.org/2000/svg" width="54" height="54" fill="none" viewBox="0 0 54 54">
    <path fill="#000" d="M43.88 53H10.12c-1.447 0-2.62-1.201-2.62-2.682V3.682C7.5 2.202 8.673 1 10.12 1h33.76c1.447 0 2.62 1.201 2.62 2.682v46.646c0 1.47-1.173 2.672-2.62 2.672zM10.12 2.14c-.83 0-1.507.693-1.507 1.542v46.646c0 .85.677 1.543 1.507 1.543h33.76c.83 0 1.507-.694 1.507-1.543V3.682c0-.849-.677-1.543-1.507-1.543H10.12z"/>
    <path fill="#000" d="M45.944 11.16H8.056v1.14h37.888v-1.14zM39.865 9.906c-1.628 0-2.963-1.356-2.963-3.034 0-1.678 1.335-3.024 2.963-3.024 1.628 0 2.964 1.356 2.964 3.034 0 1.678-1.336 3.024-2.964 3.024zm0-4.93c-1.021 0-1.85.85-1.85 1.896 0 1.046.829 1.895 1.85 1.895 1.022 0 1.851-.85 1.851-1.895 0-1.046-.83-1.895-1.85-1.895zM36.79 28.207c0 .352-.11.652-.343.911-.233.259-.506.383-.81.383-.313 0-.586-.124-.809-.383-.232-.259-.344-.56-.344-.911 0-.352.112-.653.344-.912.233-.259.506-.383.81-.383.313 0 .586.124.809.383.222.26.343.56.343.912zm-.667 0c0-.156-.05-.29-.142-.394-.09-.103-.212-.155-.354-.155-.141 0-.253.052-.354.155-.09.104-.141.238-.141.394 0 .155.05.29.141.393.091.104.213.156.354.156.142 0 .253-.052.354-.156.091-.114.142-.238.142-.393zm6.483 5.354c-.111.632-.415 1.253-.9 1.843-.496.601-1.194.891-2.104.891-.97 0-1.73-.373-2.306-1.129-.566-.756-.86-1.719-.86-2.9 0-1.18.284-2.154.86-2.91.567-.745 1.335-1.118 2.306-1.118.93 0 1.639.31 2.124.922.486.61.769 1.18.86 1.708h-1.254c-.091-.32-.263-.631-.526-.952-.263-.322-.658-.477-1.173-.477-.597 0-1.062.259-1.427.777-.354.518-.536 1.201-.536 2.06 0 .85.172 1.533.536 2.062.354.528.83.787 1.427.787.495 0 .88-.166 1.163-.497.283-.332.465-.684.556-1.057h1.254v-.01zM13.69 32.39c-.678 0-1.244-.237-1.69-.704-.444-.465-.657-1.056-.657-1.75 0-.704.223-1.294.658-1.76.445-.466 1.001-.705 1.689-.705.688 0 1.244.239 1.689.705.445.466.657 1.056.657 1.76 0 .694-.222 1.285-.657 1.75-.445.467-1.001.705-1.69.705zm0-3.883c-.374 0-.668.135-.88.404-.213.27-.324.611-.324 1.025 0 .415.111.746.324 1.015.212.26.506.394.87.394s.657-.135.87-.394c.222-.259.333-.6.333-1.015 0-.414-.11-.756-.333-1.025-.203-.27-.496-.404-.86-.404zm3.48 8.461v-2.61h-4.643v-1.066h5.775v3.676h-1.133zm1.142-5.25v1.128h-1.153v-5.644h1.143v1.357h1.335v1.067h-1.335v1.025h1.335v1.056h-1.325v.01zM26.858 28.61v4.775h.8v1.035h-.8v1.647h-1.183V34.42h-2.933v-1.087c.617-.777 1.183-1.585 1.7-2.434.525-.85.92-1.605 1.203-2.289h1.213zm-3.024 4.764h1.841v-2.879c-.182.373-.445.818-.789 1.367-.344.539-.688 1.046-1.052 1.512zM28.588 32.453c0-1.295.212-2.279.627-2.963.415-.673 1.032-1.014 1.82-1.014 1.518 0 2.276 1.263 2.276 3.8 0 1.254-.202 2.206-.617 2.89-.415.673-1.011 1.015-1.79 1.015-1.547 0-2.316-1.243-2.316-3.728zm1.294-.032c0 1.771.365 2.662 1.083 2.662.708 0 1.052-.911 1.052-2.734 0-1.843-.344-2.765-1.032-2.765-.738 0-1.102.942-1.102 2.837z"/>
</svg>
