<svg xmlns="http://www.w3.org/2000/svg" width="54" height="54" fill="none" viewBox="0 0 54 54">
    <path fill="#000" d="M43.88 53H10.12c-1.447 0-2.62-1.201-2.62-2.682V3.682C7.5 2.202 8.673 1 10.12 1h33.76c1.447 0 2.62 1.201 2.62 2.682v46.646c0 1.47-1.173 2.672-2.62 2.672zM10.12 2.14c-.83 0-1.507.693-1.507 1.542v46.646c0 .85.677 1.543 1.507 1.543h33.76c.83 0 1.507-.694 1.507-1.543V3.682c0-.849-.677-1.543-1.507-1.543H10.12z"/>
    <path fill="#000" d="M45.944 11.16H8.056v1.14h37.888v-1.14zM39.865 9.906c-1.628 0-2.963-1.356-2.963-3.034 0-1.678 1.335-3.024 2.963-3.024 1.628 0 2.964 1.356 2.964 3.034 0 1.678-1.325 3.024-2.964 3.024zm0-4.93c-1.021 0-1.85.85-1.85 1.896 0 1.046.829 1.895 1.85 1.895 1.022 0 1.851-.85 1.851-1.895 0-1.046-.83-1.895-1.85-1.895zM32.017 27.678c0 .352-.112.653-.344.912-.233.259-.506.383-.81.383-.313 0-.586-.124-.808-.383-.233-.26-.344-.56-.344-.912s.11-.652.344-.911c.232-.259.505-.383.809-.383.313 0 .586.124.809.383.222.259.344.57.344.911zm-.668 0c0-.155-.05-.29-.142-.393-.09-.104-.212-.155-.354-.155-.141 0-.252.051-.354.155-.09.103-.141.238-.141.393 0 .156.05.29.142.394.09.104.212.155.354.155.141 0 .252-.052.354-.155.09-.104.141-.238.141-.394zm6.483 5.355c-.111.631-.415 1.253-.9 1.843-.495.6-1.193.89-2.104.89-.97 0-1.73-.372-2.306-1.128-.566-.756-.86-1.72-.86-2.9s.284-2.154.86-2.91c.567-.746 1.335-1.119 2.306-1.119.93 0 1.639.311 2.124.922.486.611.769 1.18.86 1.709h-1.254c-.091-.321-.263-.632-.526-.953-.263-.32-.657-.476-1.173-.476-.597 0-1.062.259-1.426.776-.354.518-.536 1.202-.536 2.061 0 .85.172 1.533.536 2.061.354.529.829.788 1.426.788.495 0 .88-.166 1.163-.498.283-.331.465-.683.556-1.056h1.254v-.01zM17.341 34.43c.364.25.779.374 1.254.374.556 0 .981-.218 1.274-.663.294-.445.436-1.056.436-1.833l-.02-.01c-.294.528-.76.797-1.396.797-.567 0-1.032-.218-1.386-.663-.354-.445-.536-.984-.536-1.636 0-.767.212-1.388.647-1.875.425-.476.981-.725 1.669-.725.728 0 1.284.3 1.689.912.394.61.597 1.46.597 2.547 0 1.326-.253 2.362-.749 3.107-.495.746-1.203 1.119-2.124 1.119-.526 0-.97-.093-1.345-.28v-1.17h-.01zm.87-3.769c0 .414.09.735.273.984.182.238.435.363.769.363.293 0 .536-.114.718-.342.182-.228.283-.508.283-.84 0-.413-.091-.776-.283-1.076-.192-.3-.435-.446-.749-.446-.303 0-.556.135-.738.404-.182.26-.273.58-.273.953zM23.43 35.55v-1.285c.202.176.435.3.698.393.262.094.515.135.768.135.425 0 .769-.114 1.012-.342.242-.227.374-.548.374-.952 0-.425-.132-.736-.395-.933-.263-.196-.657-.29-1.203-.29-.364 0-.749.032-1.153.104l.253-4.06h3.479v1.17h-2.428l-.11 1.73c.343-.041.566-.062.677-.062.657 0 1.183.197 1.578.6.394.394.596.933.596 1.585 0 .798-.232 1.43-.687 1.875-.455.455-1.082.673-1.871.673-.668.01-1.194-.104-1.588-.342z"/>
</svg>
