<svg xmlns="http://www.w3.org/2000/svg" width="60" height="60" fill="none" viewBox="0 0 60 60">
    <circle cx="30" cy="30" r="29.5" fill="#FFC33A" stroke="#FFC33A"/>
    <g stroke="#363636" stroke-linecap="round" stroke-linejoin="round" stroke-miterlimit="10" clip-path="url(#clip0)">
        <path fill="#fff" d="M22.422 17.178S19.78 28.395 18.47 29.475s-4.433 4.112-2.004 5.78c2.44 1.66 13.59 8.52 15.594 8.244 1.992-.274 4.253-1.962 3.19-3.592-1.063-1.629-9.067-5.839-8.72-8.832.347-2.994 3.537-12.278 3.537-12.278l-7.645-1.62z"/>
        <path fill="#fff" d="M21.683 20.142l7.422 1.57.962-2.925-7.645-1.61-.74 2.965z"/>
        <path d="M30.57 40.104s1.21-1.708 2.508-2.081M24.235 20.083l.66-2.297M26.799 20.603l.66-2.297M19.511 37.199c3.985-5.467-1.04-7.724-1.04-7.724"/>
        <path fill="#fff" d="M29.093 16.49S27.55 27.857 26.34 29.044c-1.21 1.188-4.02 4.426-1.433 5.898 2.586 1.473 14.373 7.489 16.332 7.057 1.959-.422 4.052-2.277 2.832-3.818-1.22-1.54-9.605-5.142-9.537-8.155.067-3.013 2.34-12.494 2.34-12.494l-7.78-1.04z"/>
        <path fill="#fff" d="M28.657 19.504l7.533 1 .683-2.973-7.78-1.04-.436 3.013z"/>
        <path d="M39.437 38.73s1.04-1.796 2.294-2.257M31.187 19.248l.436-2.335M33.795 19.573l.436-2.326"/>
    </g>
    <defs>
        <clipPath id="clip0">
            <path fill="#fff" d="M0 0H30V28H0z" transform="translate(15 16)"/>
        </clipPath>
    </defs>
</svg>
