<svg xmlns="http://www.w3.org/2000/svg" width="60" height="60" fill="none" viewBox="0 0 60 60">
    <circle cx="30" cy="30" r="29.5" fill="#fff" stroke="#DBDBDB"/>
    <path stroke="#0F1012" stroke-linecap="round" stroke-linejoin="round" stroke-miterlimit="10" d="M28.53 25.53h2.94M16.483 23.377l-.796-6.875M43.517 23.377l.796-6.875"/>
    <path fill="#FFC33A" stroke="#0F1012" stroke-linecap="round" stroke-linejoin="round" stroke-miterlimit="10" d="M18.86 19.96s-4.08 1.747-1.95 5.57c2.128 3.824 11.538 1.948 11.62 0 .083-1.946-5.137-7.346-9.67-5.57zM41.126 19.96s4.08 1.747 1.95 5.57c-2.128 3.824-11.538 1.948-11.62 0-.082-1.946 5.137-7.346 9.67-5.57zM43.956 31.556H16.03c-.014.23-.027.448-.027.678 0 1.393.192 2.727.508 4.004 2.129-.16 7.005 1.99 9.835 5.35.536.633.99 1.277 1.415 1.91h4.45c.413-.633.88-1.265 1.415-1.91 2.844-3.37 7.72-5.522 9.85-5.35.315-1.277.508-2.611.508-4.004 0-.218-.014-.448-.028-.678z"/>
    <path fill="#81B7F1" stroke="#0F1012" stroke-linecap="round" stroke-linejoin="round" stroke-miterlimit="10" d="M43.86 34.179c.082-.633.123-1.277.123-1.945 0-.23-.027-.448-.027-.678H16.03c-.014.23-.027.448-.027.678 0 .656.055 1.3.123 1.945H43.86z"/>
</svg>
